<?xml version="1.0" encoding="iso-8859-1"?>
<!-- Uploaded to: SVG Repo, www.svgrepo.com, Generator: SVG Repo Mixer Tools -->
<svg height="800px" width="800px" version="1.1" id="Layer_1" xmlns="http://www.w3.org/2000/svg" xmlns:xlink="http://www.w3.org/1999/xlink" 
	 viewBox="0 0 512 512" xml:space="preserve">
<path style="fill:#EB86BF;" d="M512,256.006C512,397.402,397.394,512.004,256.004,512C114.606,512.004,0,397.402,0,256.006
	C-0.007,114.61,114.606,0,256.004,0C397.394,0,512,114.614,512,256.006z"/>
<path style="fill:#D670AD;" d="M511.979,256.793c-0.276-0.279-76.142-76.176-76.667-76.669c-5.937-6.34-14.315-10.365-23.669-10.365
	H100.356c-17.933,0-32.517,14.586-32.517,32.512v107.456c0,9.351,4.025,17.73,10.368,23.667c0.489,0.523,0.987,1.022,1.51,1.51
	c0.492,0.527,175.403,175.436,175.927,175.927c0.371,0.397,0.757,0.772,1.147,1.148
	C397.555,511.556,511.553,397.561,511.979,256.793z"/>
<g>
	<path style="fill:#F4F6F9;" d="M411.644,169.76H100.356c-17.931,0-32.516,14.586-32.516,32.512v107.456
		c0,17.927,14.586,32.512,32.516,32.512h311.288c17.931,0,32.516-14.586,32.516-32.512V202.272
		C444.16,184.346,429.574,169.76,411.644,169.76z M100.356,185.44h311.288c9.287,0,16.836,7.549,16.836,16.832V295.2H83.52v-92.928
		C83.52,192.989,91.069,185.44,100.356,185.44z M201.12,310.88v15.68h-47.04v-15.68H201.12z M216.8,310.88h70.56v15.68H216.8V310.88
		z M303.04,310.88h54.88v15.68h-54.88V310.88z M83.636,310.88H138.4v15.68h-38.044C91.463,326.56,84.241,319.617,83.636,310.88z
		 M411.644,326.56H373.6v-15.68h54.764C427.759,319.617,420.537,326.56,411.644,326.56z"/>
	<path style="fill:#F4F6F9;" d="M357.92,232.48h39.2c4.334,0,7.84-3.51,7.84-7.84s-3.506-7.84-7.84-7.84h-39.2
		c-4.334,0-7.84,3.51-7.84,7.84S353.586,232.48,357.92,232.48z"/>
</g>
</svg>