<?xml version="1.0" encoding="iso-8859-1"?>
<!-- Uploaded to: SVG Repo, www.svgrepo.com, Generator: SVG Repo Mixer Tools -->
<svg height="800px" width="800px" version="1.1" id="Layer_1" xmlns="http://www.w3.org/2000/svg" xmlns:xlink="http://www.w3.org/1999/xlink" 
	 viewBox="0 0 512 512" xml:space="preserve">
<path style="fill:#4FC0E8;" d="M0,256.006C0,397.402,114.606,512.004,255.996,512C397.394,512.004,512,397.402,512,256.006
	C512.009,114.61,397.394,0,255.996,0C114.606,0,0,114.614,0,256.006z"/>
<path style="fill:#3DAED9;" d="M508.018,300.777c-0.061-0.059-0.116-0.122-0.178-0.178c-0.489-0.524-96.535-96.572-97.06-97.061
	c-6.52-6.981-16.064-11.004-27.846-11.004H211.2c-17.085,0-29.598,8.326-34.741,22.123c-0.402-0.502-0.855-0.916-1.373-1.302
	c-0.435-0.586-84.343-84.492-84.93-84.93c-1.361-1.828-3.435-3.091-5.89-3.091c-4.124,0-7.467,3.339-7.467,7.467V379.2
	c0,2.455,1.263,4.53,3.092,5.89c0.436,0.586,119.225,119.375,119.811,119.81c0.305,0.411,0.686,0.73,1.059,1.06
	c17.795,3.914,36.261,6.039,55.234,6.039C382.112,512.002,486.836,420.807,508.018,300.777z"/>
<path style="fill:#F4F6F9;" d="M420.267,259.744v-29.877c0-22.677-14.653-37.333-37.333-37.333H211.2
	c-22.681,0-37.333,14.656-37.333,37.333v2.93c-0.249-11.284-5.094-21.307-12.028-28.24c-12.349-12.337-34.486-18.068-56.106-3.034
	c-2.005,1.401-3.788,3.194-5.155,5.184c-13.748,19.998-9.831,40.355,0.58,53.025h-9.425V132.799c0-4.127-3.343-7.467-7.467-7.467
	s-7.467,3.34-7.467,7.467v246.4c0,4.127,3.343,7.467,7.467,7.467s7.467-3.34,7.467-7.467v-44.8h328.533v44.8
	c0,4.127,3.343,7.467,7.467,7.467c4.124,0,7.467-3.34,7.467-7.467V274.666C435.2,264.54,430.446,259.799,420.267,259.744z
	 M188.8,229.867c0-19.49,14.033-22.4,22.4-22.4h171.733c8.367,0,22.4,2.91,22.4,22.4v29.867H188.8V229.867z M112.89,215.159
	c0.342-0.503,0.857-1.013,1.371-1.371c6.533-4.543,12.815-6.33,18.448-6.33c7.765,0,14.303,3.398,18.572,7.664
	c7.354,7.35,12.123,21.43,1.363,36.932c-0.361,0.517-0.879,1.036-1.381,1.386c-15.455,10.74-29.532,6.009-36.892-1.306
	C107.002,244.8,102.193,230.72,112.89,215.159z M173.867,232.848v26.885h-8.423C171.568,250.577,174.044,241.355,173.867,232.848z
	 M91.733,319.467v-44.8h41.043c0.047,0,0.093,0.007,0.14,0.007c0.031,0,0.063-0.007,0.093-0.007h287.258v44.8H91.733z"/>
</svg>