<svg width="24" height="24" viewBox="0 0 24 24" fill="none" xmlns="http://www.w3.org/2000/svg">
<g clip-path="url(#clip0_45_4151)">
<path d="M12.0019 7.33926C13.0581 7.33926 14.2604 8.25619 14.2604 9.52258C14.2604 10.2363 14.0329 10.7873 13.6982 11.2907C13.4837 11.6116 13.3202 11.981 13.2527 12.2483C13.1801 12.5502 13.0209 13.2811 13.9145 13.2933C14.4958 13.3079 15.9265 12.802 17.0822 11.4083C17.9714 10.289 18.5 8.86947 18.5 7.3211C18.5 3.70269 15.5943 0.768433 12.0019 0.768433C8.40855 0.768433 5.49761 3.70269 5.49761 7.3211C5.49761 8.86947 6.02537 10.289 6.91548 11.4083C8.07292 12.802 9.50273 13.3079 10.0832 13.2933C10.9768 13.2811 10.815 12.5502 10.7458 12.2483C10.6801 11.981 10.5157 11.6116 10.2995 11.2907C9.96559 10.7873 9.73727 10.2363 9.73727 9.52258C9.73985 8.25619 10.9405 7.33926 12.0019 7.33926ZM23.4964 13.962C23.23 13.7414 22.7628 13.4196 21.8036 13.2716C20.4723 13.0727 19.2845 13.3849 18.5692 13.6686C17.629 14.0407 16.4706 14.8866 15.6704 15.9887C14.8261 17.153 14.3893 18.9109 14.8081 20.743C14.9265 21.2585 15.0546 21.5492 15.2458 21.9107C15.4958 22.402 16.1549 23.0881 16.7319 23.2118C17.1878 23.3061 17.5441 23.0439 17.7189 22.8458C18.8814 21.4991 23.2871 16.2837 23.7646 15.6177C24.2335 14.9559 23.9272 14.32 23.4964 13.962ZM5.43189 13.6686C4.71657 13.3849 3.52972 13.0727 2.19843 13.2716C1.23909 13.4196 0.767683 13.7414 0.504681 13.962C0.0739193 14.32 -0.234888 14.9559 0.236525 15.6177C0.711451 16.2837 5.11617 21.4991 6.27876 22.8458C6.45355 23.0439 6.80992 23.3061 7.26669 23.2118C7.84717 23.0881 8.50368 22.402 8.75274 21.9107C8.94662 21.5492 9.07197 21.2585 9.19393 20.743C9.6118 18.9109 9.16804 17.153 8.33158 15.9887C7.53051 14.8866 6.37049 14.0407 5.43189 13.6686Z" fill="#007DBA"/>
</g>
<defs>
<clipPath id="clip0_45_4151">
<rect width="24" height="24" fill="white"/>
</clipPath>
</defs>
</svg>
