<?xml version="1.0" encoding="iso-8859-1"?>
<!-- Uploaded to: SVG Repo, www.svgrepo.com, Generator: SVG Repo Mixer Tools -->
<svg height="800px" width="800px" version="1.1" id="Layer_1" xmlns="http://www.w3.org/2000/svg" xmlns:xlink="http://www.w3.org/1999/xlink" 
	 viewBox="0 0 512 512" xml:space="preserve">
<path style="fill:#47CEAC;" d="M512,256.006C512,397.402,397.394,512.004,256.004,512C114.606,512.004,0,397.402,0,256.006
	C-0.007,114.61,114.606,0,256.004,0C397.394,0,512,114.614,512,256.006z"/>
<path style="fill:#36BB9A;" d="M512,256.005c0-25.978-3.9-51.039-11.092-74.663c-0.163-0.144-0.291-0.323-0.461-0.461
	c-0.657-0.811-82.753-82.907-83.562-83.563c-2.741-3.378-6.873-5.585-11.552-5.585H106.681c-3.981,0-7.725,1.547-10.547,4.361
	c-2.833,2.821-4.39,6.577-4.386,10.565l-0.014,82.185c0,4.672,2.211,8.809,5.593,11.551c0.657,0.81,46.635,46.773,46.89,47.044
	l0.196,105.663l-37.348,0.073c-3.978,0.007-7.718,1.568-10.537,4.404c-2.815,2.83-4.361,6.577-4.349,10.559l0.11,37.238
	c0.007,4.661,2.211,8.773,5.577,11.505c32.269,34.319,82.755,82.91,83.566,83.568c0.203,0.251,0.463,0.445,0.681,0.681
	c23.401,7.043,48.194,10.871,73.892,10.87C397.394,512.004,512,397.401,512,256.005z"/>
<g>
	<path style="fill:#F4F6F9;" d="M420.267,188.8v-82.133c0-8.233-6.698-14.933-14.933-14.933H106.682
		c-3.981,0-7.726,1.546-10.547,4.361c-2.833,2.822-4.389,6.577-4.386,10.565l-0.015,82.185c0,8.189,6.661,14.89,14.838,14.933
		l37.563,0.241l0.277,149.086l-37.348,0.073c-3.978,0.007-7.718,1.568-10.537,4.404c-2.815,2.829-4.361,6.577-4.35,10.558
		l0.11,37.238c0.015,8.218,6.711,14.89,14.923,14.89h298.124c8.236,0,14.933-6.701,14.933-14.933v-22.4
		c0-8.233-6.698-14.933-14.933-14.933h-31.079c27.961-17.759,45.948-49.861,45.948-88.214v-31.252c0-4.127-3.343-7.467-7.467-7.467
		h-82.068V233.6h37.253c4.124,0,7.467-3.34,7.467-7.467v-22.115c0-0.106-0.057-0.193-0.06-0.298l30.003,0.013
		C413.566,203.733,420.267,197.033,420.267,188.8z M405.333,382.933v22.4l-298.112,0.007l-0.128-37.231l44.815-0.087
		c4.124-0.007,7.459-3.355,7.452-7.482l-0.291-156.553c-0.007-3.988-1.571-7.737-4.407-10.558c-2.822-2.8-6.551-4.346-10.438-4.346
		h-0.054l-37.502-0.241l0.015-82.177h298.652V188.8l-104.42-0.044h-0.011l-52.369,0.044l-9.344-0.015
		c-26.374-0.087-37.231-0.11-44.275,6.963c-6.263,6.286-6.209,15.371-6.114,30.384v119.467c0,18.667,0,27.19,5.979,32.973
		c5.659,5.476,13.489,5.199,27.661,4.739c5.119-0.174,11.259-0.378,18.627-0.378H405.333z M405.267,256v23.786
		c0,50.29-35.708,88.214-83.056,88.214c-47.057,0-81.211-37.1-81.211-88.214V256h74.733v4.637c-1.78,1.85-4.183,4.017-6.865,6.432
		c-12.133,10.938-30.468,27.468-30.468,51.537c0,24.69,18.422,41.927,44.8,41.927c26.378,0,44.8-17.237,44.8-41.927
		c0-23.406-16.957-38.858-29.342-50.13c-3.067-2.794-5.963-5.447-7.991-7.708V256H405.267z M315.733,344.91
		c-13.969-2.48-22.4-12.054-22.4-26.303c0-15.863,11.715-27.835,22.4-37.593V344.91z M330.667,281.41
		c10.479,9.601,22.4,21.425,22.4,37.196c0,14.249-8.431,23.824-22.4,26.303V281.41z M315.733,241.067h-82.199
		c-4.124,0-7.467,3.34-7.467,7.467v31.252c0,38.811,17.117,70.615,44.325,88.214h-29.326c-7.565,0-13.869,0.211-19.122,0.386
		c-7.164,0.226-15.283,0.503-16.767-0.532c-1.444-1.772-1.444-11.725-1.444-22.254V226.09c-0.062-9.618-0.113-17.923,1.757-19.804
		c2.654-2.654,15.669-2.61,33.654-2.566l9.395,0.015l22.453-0.019c-0.004,0.107-0.061,0.195-0.061,0.303v22.115
		c0,4.127,3.343,7.467,7.467,7.467h37.333v7.467H315.733z M360.453,204.018v14.649h-74.587v-14.649c0-0.112-0.059-0.205-0.064-0.316
		l15.11-0.013l59.601,0.025C360.51,203.821,360.453,203.91,360.453,204.018z"/>
	<path style="fill:#F4F6F9;" d="M248.533,151.467c0-4.127-3.343-7.467-7.467-7.467H166.4c-4.124,0-7.467,3.34-7.467,7.467
		s3.343,7.467,7.467,7.467h74.667C245.19,158.933,248.533,155.594,248.533,151.467z"/>
</g>
</svg>