<?xml version="1.0" encoding="iso-8859-1"?>
<!-- Uploaded to: SVG Repo, www.svgrepo.com, Generator: SVG Repo Mixer Tools -->
<svg version="1.1" id="Layer_1" xmlns="http://www.w3.org/2000/svg" xmlns:xlink="http://www.w3.org/1999/xlink" 
	 viewBox="0 0 512 512" xml:space="preserve">
<path style="fill:#7F8499;" d="M494.345,61.793H17.655C7.905,61.793,0,69.697,0,79.448v70.621c0,9.75,7.905,17.655,17.655,17.655
	h61.792h353.106h61.792c9.75,0,17.655-7.905,17.655-17.655V79.448C512,69.697,504.095,61.793,494.345,61.793z"/>
<path style="fill:#464655;" d="M459.034,123.586H52.966c-4.875,0-8.828-3.953-8.828-8.828l0,0c0-4.875,3.953-8.828,8.828-8.828
	h406.069c4.875,0,8.828,3.953,8.828,8.828l0,0C467.862,119.634,463.91,123.586,459.034,123.586z"/>
<path style="fill:#00C3FF;" d="M79.448,105.931v317.793c0,14.626,11.857,26.483,26.483,26.483h300.138
	c14.626,0,26.483-11.857,26.483-26.483V105.931H79.448z"/>
<g>
	<path style="fill:#AFB9D2;" d="M189.793,216.276c-4.879,0-8.828-3.953-8.828-8.828v-22.069c0-4.875,3.948-8.828,8.828-8.828
		c4.879,0,8.828,3.953,8.828,8.828v22.069C198.621,212.323,194.673,216.276,189.793,216.276z"/>
	<path style="fill:#AFB9D2;" d="M189.793,282.483c-4.879,0-8.828-3.953-8.828-8.828v-22.069c0-4.875,3.948-8.828,8.828-8.828
		c4.879,0,8.828,3.953,8.828,8.828v22.069C198.621,278.53,194.673,282.483,189.793,282.483z"/>
</g>
<g>
	<path style="fill:#C7CFE2;" d="M229.517,291.31c-4.879,0-8.828-3.953-8.828-8.828v-79.448c0-4.875,3.948-8.828,8.828-8.828
		s8.828,3.953,8.828,8.828v79.448C238.345,287.358,234.397,291.31,229.517,291.31z"/>
	<path style="fill:#C7CFE2;" d="M229.517,406.069c-4.879,0-8.828-3.953-8.828-8.828v-79.448c0-4.875,3.948-8.828,8.828-8.828
		s8.828,3.953,8.828,8.828v79.448C238.345,402.116,234.397,406.069,229.517,406.069z"/>
</g>
<circle style="fill:#FFDC64;" cx="335.448" cy="353.103" r="44.138"/>
<circle style="fill:#FF5050;" cx="335.448" cy="291.31" r="44.138"/>
<rect x="79.448" y="105.931" style="fill:#00AAF0;" width="353.103" height="17.655"/>
<path style="fill:#FF8C5A;" d="M335.448,308.966c-12.334,0-23.459,5.084-31.469,13.241c8.009,8.158,19.134,13.241,31.469,13.241
	c12.335,0,23.459-5.084,31.469-13.241C358.908,314.049,347.783,308.966,335.448,308.966z"/>
<g>
	<path style="fill:#C7CFE2;" d="M220.69,105.931v61.793c0,4.875,3.948,8.828,8.828,8.828s8.828-3.953,8.828-8.828v-61.793H220.69z"
		/>
	<path style="fill:#C7CFE2;" d="M141.241,105.931v61.793c0,4.875,3.948,8.828,8.828,8.828c4.879,0,8.828-3.953,8.828-8.828v-61.793
		H141.241z"/>
</g>
<g>
	<rect x="141.241" y="105.931" style="fill:#AFB9D2;" width="17.655" height="17.655"/>
	<rect x="220.69" y="105.931" style="fill:#AFB9D2;" width="17.655" height="17.655"/>
</g>
</svg>