<svg width="48" height="45" viewBox="0 0 48 45" fill="none" xmlns="http://www.w3.org/2000/svg">
<g id="Bank Logos (Small)/Axis bank">
<g id="Logo">
<g id="Union">
<path d="M26.273 6.80429C25.5197 5.59535 24.7663 4.38642 24.015 3.17639C19.2121 10.9002 14.3913 18.6141 9.57043 26.3279C6.54074 31.1757 3.51106 36.0235 0.485848 40.8738C0.312773 41.1608 0.169483 41.4626 0.0264443 41.7638L0 41.8195C4.97861 41.8261 9.95723 41.8278 14.9358 41.7996C15.5105 40.8764 16.0818 39.9511 16.6531 39.0258C17.608 37.4791 18.563 35.9322 19.5346 34.3943C22.646 29.4721 25.6457 24.4892 28.6452 19.5065C29.5477 18.0073 30.4502 16.5081 31.3557 15.0106C29.6767 12.2667 27.9748 9.53547 26.273 6.80429Z" fill="#AE285D"/>
<path d="M27.3284 27.215C26.2245 27.2169 25.1206 27.2188 24.0168 27.2191C25.7282 30.0996 27.5047 32.9441 29.2813 35.7888C30.5327 37.7925 31.7841 39.7963 33.0129 41.8128C34.3356 41.8137 35.6582 41.8156 36.9808 41.8175C40.6538 41.8228 44.3264 41.8282 48 41.8111C46.3499 39.0825 44.6617 36.3745 42.9734 33.6665C41.6447 31.5352 40.3159 29.4038 39.0056 27.2622C35.1132 27.2016 31.2208 27.2083 27.3284 27.215Z" fill="#AE285D"/>
</g>
</g>
</g>
</svg>
