<?xml version="1.0" encoding="iso-8859-1"?>
<!-- Uploaded to: SVG Repo, www.svgrepo.com, Generator: SVG Repo Mixer Tools -->
<svg height="800px" width="800px" version="1.1" id="Layer_1" xmlns="http://www.w3.org/2000/svg" xmlns:xlink="http://www.w3.org/1999/xlink" 
	 viewBox="0 0 509 509" xml:space="preserve">
<circle style="fill:#FBD303;" cx="254.5" cy="254.5" r="254.5"/>
<g>
	<path style="fill:#080708;" d="M40.9,377.1v68.3c0,6.5,5.3,11.8,11.8,11.8H89c6.5,0,11.8-5.3,11.8-11.8v-68.3L40.9,377.1
		L40.9,377.1z"/>
	<path style="fill:#080708;" d="M408.1,377.1v68.3c0,6.5,5.3,11.8,11.8,11.8h36.3c6.5,0,11.8-5.3,11.8-11.8v-68.3L408.1,377.1
		L408.1,377.1z"/>
</g>
<g>
	<path style="fill:#393D47;" d="M72.6,206.5h-9.8v-30.3c0,0-37.6-7.1-41.2,8.8s3.7,25.2,17.2,28.8s35.8,6.4,35.8,6.4L72.6,206.5z"/>
	<path style="fill:#393D47;" d="M436.4,206.5h9.8v-30.3c0,0,37.6-7.1,41.2,8.8s-3.7,25.2-17.2,28.8s-35.8,6.4-35.8,6.4L436.4,206.5z
		"/>
</g>
<path style="fill:#F1F3F7;" d="M465.9,262c-3.8-9.5-18.4-17.8-23.3-42.9S423.1,89.5,390.9,69.8c-28.8-17.6-136.4-18-136.4-18
	s-107.6,0.4-136.4,18C85.9,89.5,71.3,193.9,66.4,219s-19.5,33.5-23.3,43c-3.8,9.5-3.1,55.7-3.1,55.7l6.2,16.3l15.5,8.4l192.8,2.8
	l192.8-2.8l15.5-8.4l6.2-16.3C469,317.7,469.7,271.4,465.9,262z"/>
<path style="fill:#393D47;" d="M458.7,322.9l-13-14.7c0,0-43.2,20.7-62.2,20.7s-239,0-258,0s-62.2-20.7-62.2-20.7l-13,14.7
	l-10.4-5.2v68.2c10.4,24.2,89,38,89,38H380c0,0,78.6-13.8,89-38v-68.2L458.7,322.9z"/>
<g>
	<path style="fill:#080708;" d="M346.1,410.1H162.9c-1.4,0-2.6-0.5-3.6-1.5l-12.8-13c-3.1-3.2-0.9-8.5,3.6-8.5h208.7
		c4.5,0,6.7,5.4,3.6,8.5l-12.8,13C348.7,409.5,347.4,410.1,346.1,410.1z"/>
	<path style="fill:#080708;" d="M127.6,362c0,8.3,6.7,15.1,15.1,15.1h223.7c8.3,0,15.1-6.7,15.1-15.1H127.6z"/>
</g>
<g>
	<ellipse style="fill:#F8B517;" cx="433.7" cy="371.9" rx="13.7" ry="9.9"/>
	<ellipse style="fill:#F8B517;" cx="75.3" cy="371.9" rx="13.7" ry="9.9"/>
</g>
<g>
	<path style="fill:#4F5565;" d="M379.7,328.9c-10.3-17.6-30.7-29.6-54.3-29.6H183.6c-23.6,0-44.1,12-54.3,29.6H379.7z"/>
	<polygon style="fill:#4F5565;" points="343.3,284.2 165.7,284.2 156.4,267.2 352.6,267.2 	"/>
</g>
<path style="fill:#DEDEDF;" d="M68.4,233.4c0,0,65.2,28.6,64.2,50.7s-58.9,7-70.4-8.5S68.4,233.4,68.4,233.4z"/>
<g>
	<ellipse style="fill:#FFFFFF;" cx="78.9" cy="262" rx="16.6" ry="18.9"/>
	<ellipse style="fill:#FFFFFF;" cx="108.9" cy="276.9" rx="13.4" ry="15"/>
</g>
<path style="fill:#DEDEDF;" d="M440.5,233.4c0,0-65.2,28.6-64.2,50.7s58.9,7,70.4-8.5S440.5,233.4,440.5,233.4z"/>
<g>
	<ellipse style="fill:#FFFFFF;" cx="430.1" cy="262" rx="16.6" ry="18.9"/>
	<ellipse style="fill:#FFFFFF;" cx="400.1" cy="276.9" rx="13.4" ry="15"/>
</g>
<g>
	<path style="fill:#DEDEDF;" d="M131.3,64.3c-6.2,9.8-13.1,23-14.3,34.1l5.5,0.6c1.2-12.1,10.4-27.5,16.8-36.9
		C136.5,62.8,133.8,63.6,131.3,64.3z"/>
	<path style="fill:#DEDEDF;" d="M369.6,62.1c6.4,9.4,15.6,24.8,16.8,36.9l5.5-0.6c-1.1-11.2-8.1-24.3-14.3-34.1
		C375.2,63.6,372.5,62.8,369.6,62.1z"/>
</g>
<path style="fill:#FCFCFD;" d="M413.8,204.8c-106.3,6.2-212.8,6.2-319.1,0c-8-0.5-13.9-8.4-12-16.1c7-27.4,14-55.5,21-84.2
	c1.4-5.7,6.3-9.9,12-10.2c92.3-4.7,184.8-4.7,277.1,0c5.6,0.3,10.6,4.5,12,10.2c7,28.7,14,56.8,21,84.2
	C427.8,196.4,421.9,204.3,413.8,204.8z"/>
<path style="fill:#DEDEDF;" d="M413.8,193.7c-106.3,6.2-212.8,6.2-319.1,0c-8-0.5-13.9-8.4-12-16.1c7-27.4,14-55.5,21-84.2
	c1.4-5.7,6.3-9.9,12-10.2c92.3-4.7,184.8-4.7,277.1,0c5.6,0.3,10.6,4.5,12,10.2c7,28.7,14,56.8,21,84.2
	C427.8,185.2,421.9,193.2,413.8,193.7z"/>
<path style="fill:#6EB1E1;" d="M413.8,199.2c-106.3,6.2-212.8,6.2-319.1,0c-8-0.5-13.9-8.4-12-16.1c7-27.4,14-55.5,21-84.2
	c1.4-5.7,6.3-9.9,12-10.2c92.3-4.7,184.8-4.7,277.1,0c5.6,0.3,10.6,4.5,12,10.2c7,28.7,14,56.8,21,84.2
	C427.8,190.8,421.9,198.7,413.8,199.2z"/>
</svg>