<?xml version="1.0" encoding="iso-8859-1"?>
<!-- Uploaded to: SVG Repo, www.svgrepo.com, Generator: SVG Repo Mixer Tools -->
<svg height="800px" width="800px" version="1.1" id="Layer_1" xmlns="http://www.w3.org/2000/svg" xmlns:xlink="http://www.w3.org/1999/xlink" 
	 viewBox="0 0 496.2 496.2" xml:space="preserve">
<path style="fill:#4ABC96;" d="M248.1,0C111.1,0,0,111.1,0,248.1s111.1,248.1,248.1,248.1s248.1-111.1,248.1-248.1S385.1,0,248.1,0z
	"/>
<path style="fill:#E6E7E8;" d="M394.8,382.8c-7.3-27.3-69.9-49.3-147.1-49.3s-139.1,22.1-146.4,49.3c-3.3,12.2-7,35.2-10.1,57.5
	c42.7,34.9,97.4,55.9,156.9,55.9s114.1-21,156.9-55.9C401.8,417.9,398.1,394.9,394.8,382.8z"/>
<polygon style="fill:#D4D6D8;" points="247.9,317 208.3,322.3 210.2,335.4 247.8,363.5 286,335.4 287.9,322.3 "/>
<path style="fill:#E2A379;" d="M287,282.1h-77.8c12.1,36.6,1,53.3,1,53.3l26.9,12.9h22l26.9-12.9C286,335.4,274.9,318.7,287,282.1z"
	/>
<path style="fill:#F4B382;" d="M248.1,61.6c-44,0-79.8,21.2-79.8,113.6c0,31.3,5.6,55.8,14,74.7c18.4,41.6,50.3,56.1,65.8,56.1
	s47.3-14.5,65.8-56.1c8.4-18.9,14-43.4,14-74.7C327.9,82.8,292.1,61.6,248.1,61.6z"/>
<g>
	<path style="fill:#141414;" d="M165.3,179.6c0,0,82.7-45.9,82.7-79.5l0.1-38.5C199.4,61.6,165.3,87.2,165.3,179.6z"/>
	<path style="fill:#141414;" d="M248,61.6l0.1,38.5c0,33.6,82.7,79.5,82.7,79.5C330.8,87.2,296.8,61.6,248,61.6z"/>
</g>
<polygon style="fill:#F5F6F7;" points="325.1,58.2 171.1,58.2 165.1,167.7 331.1,167.7 "/>
<g>
	<path style="fill:#DEDFE0;" d="M247.1,102.4c-0.6,0-1,0.4-1,1v56c0,0.6,0.4,1,1,1s1-0.4,1-1v-56
		C248.1,102.9,247.7,102.4,247.1,102.4z"/>
	<path style="fill:#DEDFE0;" d="M200.6,102.4c-0.6,0-1,0.4-1,1v56c0,0.6,0.4,1,1,1s1-0.4,1-1v-56
		C201.6,102.9,201.2,102.4,200.6,102.4z"/>
	<path style="fill:#DEDFE0;" d="M293.6,102.4c-0.6,0-1,0.4-1,1v56c0,0.6,0.4,1,1,1s1-0.4,1-1v-56
		C294.6,102.9,294.2,102.4,293.6,102.4z"/>
	<path style="fill:#DEDFE0;" d="M270.1,117.4c-0.6,0-1,0.3-1,0.7v41.5c0,0.4,0.4,0.7,1,0.7s1-0.3,1-0.7v-41.5
		C271.1,117.8,270.7,117.4,270.1,117.4z"/>
	<path style="fill:#DEDFE0;" d="M223.6,117.4c-0.6,0-1,0.3-1,0.7v41.5c0,0.4,0.4,0.7,1,0.7s1-0.3,1-0.7v-41.5
		C224.6,117.8,224.2,117.4,223.6,117.4z"/>
	<path style="fill:#DEDFE0;" d="M176.9,117.4c-0.6,0-1,0.3-1,0.7v41.5c0,0.4,0.4,0.7,1,0.7s1-0.3,1-0.7v-41.5
		C177.9,117.8,177.5,117.4,176.9,117.4z"/>
	<path style="fill:#DEDFE0;" d="M316.6,117.4c-0.6,0-1,0.3-1,0.7v41.5c0,0.4,0.4,0.7,1,0.7s1-0.3,1-0.7v-41.5
		C317.6,117.8,317.2,117.4,316.6,117.4z"/>
</g>
<g>
	<circle style="fill:#F5F6F7;" cx="248.1" cy="54.1" r="37.7"/>
	<circle style="fill:#F5F6F7;" cx="299.2" cy="62.8" r="37.7"/>
	<circle style="fill:#F5F6F7;" cx="197" cy="62.8" r="37.7"/>
</g>
<path style="fill:#B74E39;" d="M258.5,257.8c-3-0.4-10.4,2.5-10.4,2.5s-7.6-2.9-10.6-2.5c-4.8,0.7-11.9,9-11.9,10.3
	c0,0,10.1,5.2,22.5,5.2s22.5-5.2,22.5-5.2S263.4,258.5,258.5,257.8z"/>
<path style="fill:#AA4035;" d="M254.2,264.4c-2-0.1-4.5,1.7-6.1,1.7c-1.9,0-4.8-1.8-7-1.6c-13.1,0.8-15.5,3.6-15.5,3.6
	s10.1,9.1,22.5,9.1s22.5-9.1,22.5-9.1S267.9,265.2,254.2,264.4z"/>
<path style="fill:#E2A379;" d="M247.9,317l-37.7,18.4c0,0,16.8,28.1,37.6,28.1s38.2-28.1,38.2-28.1L247.9,317z"/>
<path style="fill:#E6E7E8;" d="M304.2,336.5l-16.4-14.2l-39.7,19.2l-39.8-19.2l-16.2,14.1l-1.7,1.4c0,0,0.4,127.4,57.7,127.4
	s57.7-127.4,57.7-127.4L304.2,336.5z"/>
<g>
	<circle style="fill:#9B9B9A;" cx="294.6" cy="383.7" r="6"/>
	<circle style="fill:#9B9B9A;" cx="294.6" cy="430.2" r="6"/>
	<circle style="fill:#9B9B9A;" cx="294.6" cy="476.7" r="6"/>
	<circle style="fill:#9B9B9A;" cx="201.6" cy="383.7" r="6"/>
	<circle style="fill:#9B9B9A;" cx="201.6" cy="430.2" r="6"/>
	<circle style="fill:#9B9B9A;" cx="201.6" cy="476.7" r="6"/>
	<path style="fill:#9B9B9A;" d="M174.1,373.4v111.5c0.9,0.3,1.8,0.5,2.7,0.8V373.4H174.1z"/>
</g>
<g>
	<path style="fill:#F4B382;" d="M169.8,178c-7.6,1.3-13.4,4.6-9.1,29.7c4.3,25.2,9.6,26.3,17.3,25L169.8,178z"/>
	<path style="fill:#F4B382;" d="M326.5,178l-8.1,54.8c7.6,1.3,13,0.1,17.3-25C339.9,182.6,334.1,179.3,326.5,178z"/>
</g>
<g>
	<path style="fill:#141414;" d="M174.8,183.1c-0.4-2.7-0.5-5.2-0.4-7.1c0.1-2.9,0.5-4.7,0.5-4.7l-9.4,3.5c0,1.4,0,2.9,0,4.3
		c0,0,1-0.3,2.8-0.9c-0.1,0-0.2,0.1-0.3,0.1c1.3,2.2,2.9,5.6,4.5,10.5C172.4,188.8,176.1,191.5,174.8,183.1z"/>
	<path style="fill:#141414;" d="M330.7,174.8l-9.3-3.5c0,0,0.4,1.8,0.5,4.7c0.1,2,0,4.4-0.4,7.1c-1.3,8.4,2.3,5.7,2.3,5.7
		c1.5-5,3.2-8.3,4.4-10.5c1.6,0.6,2.5,0.8,2.5,0.8C330.8,177.6,330.8,176.2,330.7,174.8z"/>
</g>
</svg>