<?xml version="1.0" encoding="iso-8859-1"?>
<!-- Uploaded to: SVG Repo, www.svgrepo.com, Generator: SVG Repo Mixer Tools -->
<svg version="1.1" id="Layer_1" xmlns="http://www.w3.org/2000/svg" xmlns:xlink="http://www.w3.org/1999/xlink" 
	 viewBox="0 0 512 512" xml:space="preserve">
<polygon style="fill:#EDEEF0;" points="175.007,98.165 112.971,202.94 112.971,512 399.029,512 399.029,202.94 336.993,98.165 "/>
<polygon style="fill:#DCDEE2;" points="256,512 399.029,512 399.029,202.94 336.993,98.165 256,98.165 "/>
<rect x="146.37" y="212.08" style="fill:#FFAC12;" width="219.28" height="266.53"/>
<rect x="256" y="212.08" style="fill:#D89210;" width="109.64" height="266.53"/>
<path style="fill:#444242;" d="M363.842,123.368H148.158V0H363.84v123.368H363.842z"/>
<path style="fill:#3A3839;" d="M363.842,123.368H256V0h107.842V123.368z"/>
<path style="fill:#FFFFFF;" d="M334.446,418.785H177.554V276.621h156.892L334.446,418.785L334.446,418.785z"/>
<path style="fill:#EDEEF0;" d="M334.446,418.785H256V276.621h78.446L334.446,418.785L334.446,418.785z"/>
<g>
	<rect x="210.89" y="308.75" style="fill:#444242;" width="90.22" height="11.13"/>
	<rect x="210.89" y="342.14" style="fill:#444242;" width="90.22" height="11.13"/>
	<rect x="210.89" y="375.53" style="fill:#444242;" width="90.22" height="11.13"/>
</g>
<g>
	<rect x="256" y="308.75" style="fill:#3A3839;" width="45.12" height="11.13"/>
	<rect x="256" y="342.14" style="fill:#3A3839;" width="45.12" height="11.13"/>
	<rect x="256" y="375.53" style="fill:#3A3839;" width="45.12" height="11.13"/>
	<path style="fill:#3A3839;" d="M173.487,1.183v122.184h22.261V0h-13.332C179.326,0,176.334,0.416,173.487,1.183z"/>
	<rect x="221.07" style="fill:#3A3839;" width="22.261" height="123.37"/>
</g>
<g>
	<rect x="268.67" style="fill:#262626;" width="22.261" height="123.37"/>
	<path style="fill:#262626;" d="M338.513,1.183C335.666,0.416,332.674,0,329.584,0h-13.332v123.368h22.261V1.183z"/>
</g>
</svg>