<svg width="24" height="24" viewBox="0 0 24 24" fill="none" xmlns="http://www.w3.org/2000/svg">
<path d="M7.31773 16.7405L7.27361 16.7832C6.58072 17.4892 5.7789 17.8622 4.95295 17.8622C3.22797 17.8622 1.97663 16.5681 1.97663 14.7832C1.97663 13.001 3.22797 11.7048 4.95295 11.7048C5.7789 11.7048 6.58072 12.0799 7.27361 12.7886L7.31773 12.8307L8.42705 11.489L8.3974 11.4532C7.47493 10.3631 6.36768 9.83297 5.00673 9.83297C3.64232 9.83297 2.39305 10.2928 1.49402 11.1208C0.515014 12.0185 0 13.2843 0 14.7832C0 16.282 0.515014 17.5506 1.49402 18.4482C2.39305 19.2811 3.64232 19.7375 5.00673 19.7375C6.36768 19.7375 7.47493 19.2066 8.3974 18.1159L8.42705 18.0828L7.31773 16.7405Z" fill="#004685"/>
<path d="M9.54749 19.5545H11.5069V9.98781H9.54749V19.5545Z" fill="#004685"/>
<path d="M19.1834 17.4748C18.6601 17.7933 18.174 17.954 17.7369 17.954C17.1033 17.954 16.8165 17.6189 16.8165 16.8743V11.7979H18.8138V9.99712H16.8165V7.02011L14.8964 8.04875V9.99712H13.239V11.7979H14.8964V17.1976C14.8964 18.6682 15.7679 19.6748 17.0696 19.701C17.9527 19.7182 18.485 19.4549 18.8076 19.2618L18.8283 19.2487L19.2992 17.4038L19.1834 17.4748Z" fill="#004685"/>
<path d="M20.8053 19.5545H22.7675V9.98781H20.8053V19.5545Z" fill="#004685"/>
<path d="M23.9104 8.31088C22.1199 5.77511 19.1471 4.26248 16.1225 4.26248C13.0986 4.26248 10.125 5.77511 8.33799 8.31088L8.24561 8.44118H10.5001L10.5249 8.4143C12.0589 6.82996 14.0624 5.99298 16.1225 5.99298C18.1825 5.99298 20.1847 6.82996 21.7221 8.4143L21.7469 8.44118H24L23.9104 8.31088Z" fill="#EE1C25"/>
</svg>
