<?xml version="1.0" encoding="iso-8859-1"?>
<!-- Uploaded to: SVG Repo, www.svgrepo.com, Generator: SVG Repo Mixer Tools -->
<svg height="800px" width="800px" version="1.1" id="Layer_1" xmlns="http://www.w3.org/2000/svg" xmlns:xlink="http://www.w3.org/1999/xlink" 
	 viewBox="0 0 512.12 512.12" xml:space="preserve">
<g transform="translate(1 1)">
	<path style="fill:#FFDD09;" d="M422.912,502.587l-54.613-9.387c-9.387-1.707-18.773-2.56-29.013-4.267
		c-13.653-2.56-28.16-3.413-41.813-3.413h-89.6c-15.36,0-30.72,1.707-46.08,4.267c-7.68,1.707-15.36,2.56-23.04,3.413l-51.2,8.533
		c-12.8,2.56-23.893-11.093-18.773-23.04l24.747-61.44c-10.24-110.08-10.24-219.307,0-324.267l0,0L64.512,30.694
		c-5.12-12.8,6.827-26.453,19.627-23.04l45.227,17.067c20.48,5.973,41.813,8.533,62.293,8.533h124.587
		c21.333,0,41.813-2.56,62.293-7.68l46.933-17.067c12.8-3.413,23.893,8.533,20.48,21.333l-28.16,63.147l0,0
		c12.8,107.52,12.8,215.893,0,324.267l23.893,63.147C445.098,492.347,434.858,504.294,422.912,502.587"/>
	<path style="fill:#FD9808;" d="M442.538,29.84c3.413-12.8-7.68-24.747-20.48-21.333l-12.8,4.267
		c3.413,4.267,5.12,10.24,3.413,17.067l-23.893,63.147l0,0c11.093,107.52,11.093,215.893,0,324.267l20.48,63.147
		c1.707,7.68-0.853,15.36-5.973,18.773l16.213,2.56c12.8,1.707,23.04-9.387,18.773-21.333l-23.893-63.147
		c12.8-108.373,12.8-216.747,0-324.267l0,0L442.538,29.84z"/>
	<path style="fill:#FFFFFF;" d="M94.378,478.694l21.333-61.44c-8.533-110.08-8.533-219.307,0-324.267l0,0L90.965,30.694
		c-2.56-5.973-0.853-12.8,2.56-17.92l-12.8-4.267c-13.653-3.413-24.747,9.387-19.627,22.187l29.013,62.293l0,0
		c-10.24,104.96-10.24,214.187,0,324.267l-24.747,61.44c-5.12,11.947,5.12,25.6,18.773,23.04l16.213-2.56
		C94.378,494.907,91.818,486.374,94.378,478.694"/>
	<g>
		<polygon style="fill:#54C9FD;" points="195.925,331.92 170.325,323.387 136.192,340.454 144.725,306.32 161.792,272.187 
			178.858,289.254 221.525,280.72 		"/>
		<polygon style="fill:#54C9FD;" points="161.792,238.054 349.525,238.054 349.525,101.52 161.792,101.52 		"/>
	</g>
	<polygon style="fill:#33A9F8;" points="323.925,238.054 349.525,238.054 349.525,101.52 323.925,101.52 	"/>
	<path d="M153.258,374.587c-5.12,0-8.533-3.413-8.533-8.533c0-5.12,3.413-8.533,8.533-8.533c5.12,0,8.533,3.413,8.533,8.533
		C161.792,371.174,158.378,374.587,153.258,374.587"/>
	<path d="M178.858,400.187c-5.12,0-8.533-3.413-8.533-8.533c0-5.12,3.413-8.533,8.533-8.533c5.12,0,8.533,3.413,8.533,8.533
		C187.392,396.774,183.978,400.187,178.858,400.187"/>
	<path d="M170.325,434.32c-5.12,0-8.533-3.413-8.533-8.533c0-5.12,3.413-8.533,8.533-8.533c5.12,0,8.533,3.413,8.533,8.533
		C178.858,430.907,175.445,434.32,170.325,434.32"/>
	<path d="M153.258,459.92c-5.12,0-8.533-3.413-8.533-8.533c0-5.12,3.413-8.533,8.533-8.533c5.12,0,8.533,3.413,8.533,8.533
		C161.792,456.507,158.378,459.92,153.258,459.92"/>
	<path d="M153.258,408.72c-5.12,0-8.533-3.413-8.533-8.533c0-5.12,3.413-8.533,8.533-8.533c5.12,0,8.533,3.413,8.533,8.533
		C161.792,405.307,158.378,408.72,153.258,408.72"/>
	<path d="M425.472,511.12c-1.707,0-2.56,0-4.267,0l0,0l-54.613-9.387c-4.267-0.853-8.533-0.853-12.8-1.707
		c-5.12-0.853-11.093-1.707-16.213-2.56c-12.8-2.56-25.6-3.413-40.107-3.413h-89.6c-14.507,0-29.013,1.707-44.373,4.267
		c-4.267,0.853-8.533,1.707-12.8,1.707c-3.413,0.853-6.827,0.853-10.24,1.707l-51.2,8.533c-9.387,1.707-17.92-1.707-23.893-9.387
		c-5.973-7.68-7.68-17.067-3.413-25.6l24.747-59.733C74.752,307.174,74.752,199.654,84.992,94.694L56.832,34.96
		c-4.267-9.387-2.56-19.627,4.267-27.307c5.973-7.68,16.213-10.24,25.6-7.68h0.853l45.227,17.067
		c19.627,5.12,39.253,7.68,59.733,7.68h124.587c20.48,0,40.107-2.56,59.733-7.68l46.08-17.067h0.853
		c9.387-2.56,17.92,0,24.747,6.827c6.827,6.827,8.533,16.213,5.973,24.747V32.4l-28.16,62.293c12.8,106.667,12.8,215.04,0,321.707
		l23.04,61.44c2.56,9.387,0.853,17.92-5.12,24.747C439.978,507.707,433.152,511.12,425.472,511.12z M423.765,494.054
		c4.267,0.853,6.827-1.707,7.68-2.56c0.853-0.853,3.413-4.267,1.707-7.68l-23.893-63.147c0-1.707,0-3.413,0-4.267
		c12.8-107.52,12.8-215.893,0-322.56c0-1.707,0-3.413,0.853-4.267l28.16-63.147c0.853-4.267-0.853-6.827-1.707-7.68
		c-1.707-0.853-4.267-3.413-8.533-2.56l-46.08,17.067h-0.853c-21.333,5.12-42.667,7.68-64,7.68h-125.44
		c-21.333,0.853-42.667-1.707-64-6.827h-0.853l-45.227-17.92c-2.56,0-5.973,0.853-7.68,2.56c-2.56,2.56-3.413,5.973-1.707,9.387
		l29.013,61.44c0.853,0.853,0.853,2.56,0.853,4.267c-10.24,104.96-10.24,213.333,0,322.56c0,1.707,0,2.56-0.853,4.267l-24.747,61.44
		c-1.707,4.267,0,7.68,1.707,8.533c0.853,0.853,3.413,3.413,7.68,3.413l51.2-8.533c3.413-0.853,6.827-0.853,11.093-1.707
		c4.267-0.853,7.68-0.853,11.947-1.707c16.213-2.56,32.427-4.267,47.787-4.267h89.6c15.36,0,29.867,0.853,43.52,3.413
		c5.12,0.853,11.093,1.707,15.36,2.56c4.267,0.853,8.533,0.853,12.8,1.707L423.765,494.054z"/>
	<path d="M349.525,246.587H161.792c-5.12,0-8.533-3.413-8.533-8.533V101.52c0-5.12,3.413-8.533,8.533-8.533h187.733
		c5.12,0,8.533,3.413,8.533,8.533v136.533C358.058,243.174,354.645,246.587,349.525,246.587z M170.325,229.52h170.667V110.054
		H170.325V229.52z"/>
	<path d="M280.405,152.72h-51.2c-5.12,0-8.533-3.413-8.533-8.533c0-5.12,3.413-8.533,8.533-8.533h51.2
		c5.12,0,8.533,3.413,8.533,8.533C288.938,149.307,284.672,152.72,280.405,152.72z"/>
	<path d="M306.005,195.387h-102.4c-5.12,0-8.533-3.413-8.533-8.533c0-5.12,3.413-8.533,8.533-8.533h102.4
		c5.12,0,8.533,3.413,8.533,8.533C314.538,191.974,310.272,195.387,306.005,195.387z"/>
	<path d="M136.192,348.987c-1.707,0-3.413-0.853-5.12-1.707c-2.56-1.707-3.413-5.12-2.56-8.533l8.533-34.133
		c0-0.853,0-0.853,0.853-1.707l17.067-34.133c0.853-2.56,3.413-4.267,5.973-4.267c2.56-0.853,5.12,0.853,7.68,2.56l13.653,13.653
		l38.4-7.68c3.413-0.853,6.827,0.853,8.533,3.413c1.707,2.56,2.56,5.973,0.853,9.387l-25.6,51.2
		c-1.707,3.413-5.973,5.973-10.24,4.267l-22.187-7.68l-30.72,15.36C138.752,348.987,137.898,348.987,136.192,348.987z
		 M152.405,308.88l-3.413,15.36l17.92-8.533c1.707-0.853,4.267-0.853,6.827-0.853l18.773,5.973l14.507-29.013l-25.6,5.12
		c-2.56,0.853-5.973,0-7.68-2.56l-8.533-8.533L152.405,308.88z"/>
	<path d="M170.325,348.987c-5.12,0-8.533-3.413-8.533-8.533v-17.067c0-5.12,3.413-8.533,8.533-8.533c5.12,0,8.533,3.413,8.533,8.533
		v17.067C178.858,345.574,175.445,348.987,170.325,348.987z"/>
</g>
</svg>