<?xml version="1.0" encoding="iso-8859-1"?>
<!-- Uploaded to: SVG Repo, www.svgrepo.com, Generator: SVG Repo Mixer Tools -->
<svg height="800px" width="800px" version="1.1" id="Layer_1" xmlns="http://www.w3.org/2000/svg" xmlns:xlink="http://www.w3.org/1999/xlink" 
	 viewBox="0 0 512 512" xml:space="preserve">
<path style="fill:#F4DA84;" d="M512,155.826v200.348c0,24.588-19.933,44.522-44.522,44.522H367.304
	c-24.588,0-44.522-19.934-44.522-44.522c0,24.588-19.934,44.522-44.522,44.522H44.522C19.933,400.696,0,380.762,0,356.174V155.826
	c0-24.588,19.933-44.522,44.522-44.522h233.739c24.588,0,44.522,19.933,44.522,44.522c0-24.588,19.934-44.522,44.522-44.522h100.174
	C492.066,111.304,512,131.238,512,155.826z"/>
<path style="fill:#FFEE92;" d="M512,155.826v200.348c0,24.588-19.933,44.522-44.522,44.522H367.304
	c-24.588,0-44.522-19.934-44.522-44.522V155.826c0-24.588,19.934-44.522,44.522-44.522h100.174
	C492.066,111.304,512,131.238,512,155.826z"/>
<path style="fill:#FF8D40;" d="M512,155.826v33.391H0v-33.391c0-24.588,19.933-44.522,44.522-44.522h233.739
	c24.588,0,44.522,19.933,44.522,44.522c0-24.588,19.934-44.522,44.522-44.522h100.174C492.066,111.304,512,131.238,512,155.826z"/>
<path style="fill:#FFA669;" d="M512,155.826v33.391H322.783v-33.391c0-24.588,19.934-44.522,44.522-44.522h100.174
	C492.066,111.304,512,131.238,512,155.826z"/>
<path style="fill:#666666;" d="M400.696,322.783v22.261c0,4.61-3.738,8.348-8.348,8.348S384,349.654,384,345.043v-22.261
	c0-4.61,3.738-8.348,8.348-8.348S400.696,318.172,400.696,322.783z M414.609,314.435c-4.61,0-8.348,3.738-8.348,8.348v22.261
	c0,4.61,3.738,8.348,8.348,8.348s8.348-3.738,8.348-8.348v-22.261C422.957,318.172,419.219,314.435,414.609,314.435z
	 M364.522,314.435c-4.61,0-8.348,3.738-8.348,8.348v22.261c0,4.61,3.738,8.348,8.348,8.348s8.348-3.738,8.348-8.348v-22.261
	C372.87,318.172,369.132,314.435,364.522,314.435z M448,314.435c-4.61,0-8.348,3.738-8.348,8.348v22.261
	c0,4.61,3.738,8.348,8.348,8.348c4.61,0,8.348-3.738,8.348-8.348v-22.261C456.348,318.172,452.61,314.435,448,314.435z
	 M470.261,314.435c-4.61,0-8.348,3.738-8.348,8.348v22.261c0,4.61,3.738,8.348,8.348,8.348c4.61,0,8.348-3.738,8.348-8.348v-22.261
	C478.609,318.172,474.871,314.435,470.261,314.435z"/>
<path style="fill:#E55D30;" d="M36.174,155.826c0-4.61,3.738-8.348,8.348-8.348h111.304c4.61,0,8.348,3.738,8.348,8.348
	s-3.738,8.348-8.348,8.348H44.522C39.912,164.174,36.174,160.436,36.174,155.826z M155.826,336.696H44.522
	c-4.61,0-8.348,3.738-8.348,8.348s3.738,8.348,8.348,8.348h111.304c4.61,0,8.348-3.738,8.348-8.348S160.436,336.696,155.826,336.696
	z M211.478,303.304H44.522c-4.61,0-8.348,3.738-8.348,8.348S39.912,320,44.522,320h166.957c4.61,0,8.348-3.738,8.348-8.348
	S216.088,303.304,211.478,303.304z M411.826,147.478h-44.522c-4.61,0-8.348,3.738-8.348,8.348s3.738,8.348,8.348,8.348h44.522
	c4.61,0,8.348-3.738,8.348-8.348S416.436,147.478,411.826,147.478z"/>
</svg>