<?xml version="1.0" encoding="iso-8859-1"?>
<!-- Uploaded to: SVG Repo, www.svgrepo.com, Generator: SVG Repo Mixer Tools -->
<svg height="800px" width="800px" version="1.1" id="Layer_1" xmlns="http://www.w3.org/2000/svg" xmlns:xlink="http://www.w3.org/1999/xlink" 
	 viewBox="0 0 512 512" xml:space="preserve">
<path style="fill:#EB86BF;" d="M512,256.006C512,397.402,397.394,512.004,256.004,512C114.606,512.004,0,397.402,0,256.006
	C-0.007,114.61,114.606,0,256.004,0C397.394,0,512,114.614,512,256.006z"/>
<path style="fill:#D670AD;" d="M512,256.005c0-1.357-0.081-2.692-0.101-4.045c-0.37-0.385-143.164-143.204-143.69-143.69
	c-4.892-5.3-11.834-8.679-19.599-8.679H163.391c-14.753,0-26.755,12.002-26.755,26.754V369.19c0,7.548,3.216,14.272,8.271,19.106
	c0.478,0.537,17.961,20.948,19.744,22.314c0.444,0.579,99.513,99.648,100.093,100.092c0.307,0.402,0.685,0.721,1.052,1.052
	C402.641,506.604,512,394.117,512,256.005z"/>
<g>
	<path style="fill:#F4F6F9;" d="M348.61,99.593H163.39c-14.752,0-26.754,12.002-26.754,26.754V369.19
		c0,14.047,10.919,25.474,24.695,26.546v8.441c0,4.546,3.682,8.231,8.231,8.231s8.231-3.686,8.231-8.231v-8.231h156.409v8.231
		c0,4.546,3.682,8.231,8.231,8.231s8.231-3.686,8.231-8.231v-8.441c13.777-1.072,24.695-12.499,24.695-26.546V126.346
		C375.364,111.595,363.362,99.593,348.61,99.593z M358.9,369.19c0,5.676-4.614,10.29-10.29,10.29H163.39
		c-5.676,0-10.29-4.614-10.29-10.29V126.346c0-5.676,4.614-10.29,10.29-10.29h185.22c5.676,0,10.29,4.614,10.29,10.29V369.19z"/>
	<path style="fill:#F4F6F9;" d="M317.74,181.913c-4.55,0-8.232,3.686-8.232,8.231v49.392c0,4.546,3.682,8.231,8.232,8.231
		c4.55,0,8.231-3.686,8.231-8.231v-49.392C325.972,185.598,322.29,181.913,317.74,181.913z"/>
</g>
</svg>