<?xml version="1.0" encoding="iso-8859-1"?>
<!-- Uploaded to: SVG Repo, www.svgrepo.com, Generator: SVG Repo Mixer Tools -->
<svg height="800px" width="800px" version="1.1" id="Layer_1" xmlns="http://www.w3.org/2000/svg" xmlns:xlink="http://www.w3.org/1999/xlink" 
	 viewBox="0 0 512 512" xml:space="preserve">
<path style="fill:#5D9BEB;" d="M512,256.006C512,397.402,397.394,512.004,256.004,512C114.606,512.004,0,397.402,0,256.006
	C-0.007,114.61,114.606,0,256.004,0C397.394,0,512,114.614,512,256.006z"/>
<path style="fill:#4988DB;" d="M512,256.005c0-37.673-8.203-73.408-22.814-105.617c-0.276-0.287-62.444-62.594-63.03-63.03
	c-1.36-1.828-3.435-3.091-5.889-3.091H91.733c-4.123,0-7.467,3.344-7.467,7.467c0,2.455,1.263,4.53,3.092,5.89
	c0.435,0.585,26.385,26.601,26.774,26.945v258.365c0,2.455,1.264,4.53,3.092,5.89c0.437,0.587,11.367,11.548,11.84,11.936v19.507
	c0,2.455,1.264,4.53,3.093,5.89c0.435,0.586,0.931,1.081,1.517,1.517c0.435,0.586,79.792,79.945,80.38,80.38
	c0.164,0.221,0.389,0.375,0.572,0.572c13.473,2.19,27.283,3.375,41.376,3.374C397.394,512.004,512,397.401,512,256.005z"/>
<g>
	<path style="fill:#F4F6F9;" d="M211.2,173.867h89.6c4.124,0,7.467-3.343,7.467-7.467s-3.343-7.467-7.467-7.467h-89.6
		c-4.124,0-7.467,3.343-7.467,7.467S207.076,173.867,211.2,173.867z"/>
	<path style="fill:#F4F6F9;" d="M211.2,315.733h89.6c4.124,0,7.467-3.343,7.467-7.467c0-4.124-3.343-7.467-7.467-7.467h-89.6
		c-4.124,0-7.467,3.343-7.467,7.467C203.733,312.39,207.076,315.733,211.2,315.733z"/>
	<path style="fill:#F4F6F9;" d="M420.267,84.267H91.733c-4.124,0-7.467,3.343-7.467,7.467S87.61,99.2,91.733,99.2h22.4v283.733
		c0,4.124,3.343,7.467,7.467,7.467h7.467v29.867c0,4.124,3.343,7.467,7.467,7.467S144,424.39,144,420.267V390.4h224v29.867
		c0,4.124,3.343,7.467,7.467,7.467c4.124,0,7.467-3.343,7.467-7.467V390.4h7.467c4.124,0,7.467-3.343,7.467-7.467V99.2h22.4
		c4.124,0,7.467-3.343,7.467-7.467S424.39,84.267,420.267,84.267z M382.933,375.467H129.067V248.533h253.867V375.467z
		 M382.933,233.6H129.067V99.2h253.867V233.6z"/>
</g>
</svg>