<?xml version="1.0" encoding="utf-8"?>

<!DOCTYPE svg PUBLIC "-//W3C//DTD SVG 1.1//EN" "http://www.w3.org/Graphics/SVG/1.1/DTD/svg11.dtd">
<!-- Uploaded to: SVG Repo, www.svgrepo.com, Generator: SVG Repo Mixer Tools -->
<svg height="800px" width="800px" version="1.1" id="_x32_" xmlns="http://www.w3.org/2000/svg" xmlns:xlink="http://www.w3.org/1999/xlink" 
	 viewBox="0 0 512 512"  xml:space="preserve">
<style type="text/css">
	.st0{fill:#000000;}
</style>
<g>
	<path class="st0" d="M356.343,153.512c66.415-2.873,125.548-45.828,125.548-45.828l-30.088-53.457c0,0-48.77,45.818-106.873,49.633
		c-58.044,3.824-95.184-51.753-109.984-74.458c-3.112-4.775-8.302-11.452-7.272,1.902
		C228.715,98.134,289.939,156.366,356.343,153.512z"/>
	<path class="st0" d="M324.869,70.742c3.716,3.418,9.432,3.418,13.146,0l29.285-26.947c2-1.842,3.13-4.428,3.13-7.143
		c0-2.714-1.13-5.31-3.13-7.153L338.015,2.564c-3.715-3.419-9.43-3.419-13.146,0L295.585,29.5c-2,1.843-3.14,4.438-3.14,7.153
		c0,2.715,1.139,5.301,3.14,7.143L324.869,70.742z"/>
	<path class="st0" d="M388.521,161.16c-80.928,6.232-77.817,82.008-127.629,105.359c-15.206,7.122-29.71,7.777-43.758,5.181
		c-4.705-2.595-9.619-5.033-14.86-7.251c49.801-30.097,60.173-101.683,45.65-131.78c-14.524-30.096-71.596-71.596-128.658-49.81
		c-57.073,21.794-79.898,57.082-87.159,74.716c-3.12,14.524,40.458,29.047,40.458,29.047c10.383-12.443,59.153-43.57,96.501-38.389
		c37.359,5.182,40.469,29.057,36.318,48.771c-3.854,18.308-46.69,45.65-98.572,45.65c-5.191,5.192,17.634,56.033,22.825,58.114
		c5.191,2.07,21.785-7.272,54.992,7.251c33.208,14.533,66.405,70.566,14.533,113.105c-43.986,36.071-176.398,25.946-171.208-121.407
		c4.151-21.784-6.232-21.774-13.493,1.051c-7.261,22.825-19.576,89.239,19.715,145.252c48.771,69.525,154.604,92.35,211.677,28.016
		c40.756-45.937,49.721-112.5,16.772-161.558c8.351-0.06,16.822-1.229,25.232-3.964c62.264-20.239,71.09-60.193,99.106-78.867
		c28.017-18.674,68.485-11.383,73.152,39.983c4.636,50.99-14.008,122.952-66.93,130.739c-52.912,7.787-73.151-49.81-71.586-66.929
		c1.555-17.119-7.787-20.23-10.897-12.76c-23.747,56.982,4.666,162.172,76.261,162.172c71.596,0,118.287-87.159,118.287-171.198
		C505.251,227.604,469.458,154.939,388.521,161.16z"/>
</g>
</svg>