<?xml version="1.0" encoding="iso-8859-1"?>
<!-- Uploaded to: SVG Repo, www.svgrepo.com, Generator: SVG Repo Mixer Tools -->
<svg height="800px" width="800px" version="1.1" id="Layer_1" xmlns="http://www.w3.org/2000/svg" xmlns:xlink="http://www.w3.org/1999/xlink" 
	 viewBox="0 0 512 512" xml:space="preserve">
<circle style="fill:#FFAD9E;" cx="256" cy="256" r="256"/>
<path style="fill:#FF6262;" d="M512,256c0-14.427-1.212-28.57-3.506-42.348l-125.64-125.64L193.643,291.064l-10.776-10.776
	l-53.382,53.382l74.962,97.79l79.063,79.063C411.957,496.8,512,388.089,512,256z"/>
<path style="fill:#D35933;" d="M382.854,88.012L382.854,88.012c-9.966-9.966-26.124-9.966-36.09,0l-90.226,90.226l36.09,36.09
	l90.226-90.226C392.819,114.138,392.819,97.978,382.854,88.012z"/>
<path style="fill:#B54324;" d="M382.426,87.626L274.175,195.877l18.453,18.453l90.226-90.226c9.966-9.966,9.966-26.124,0-36.092
	C382.716,87.876,382.566,87.761,382.426,87.626z"/>
<g>
	<circle style="fill:#E09112;" cx="299.253" cy="173.942" r="6.896"/>
	<circle style="fill:#E09112;" cx="341.919" cy="131.275" r="6.896"/>
</g>
<path style="fill:#FFFFFF;" d="M134.253,361.269l70.194,70.194l160.906-160.906L264.787,169.991L134.254,300.523
	C117.479,317.297,117.479,344.493,134.253,361.269z M171.534,323.582c4.039,4.039,4.039,10.588,0,14.627
	c-4.039,4.039-10.588,4.039-14.627,0c-4.039-4.039-4.039-10.588,0-14.627C160.946,319.541,167.495,319.541,171.534,323.582z"/>
<path style="fill:#D0D1D3;" d="M124.318,345.734c2.082,5.667,5.387,10.985,9.935,15.534l70.194,70.194l160.906-160.906
	l-82.928-82.928L124.318,345.734z M171.534,338.21c-4.039,4.039-10.588,4.039-14.627,0c-4.039-4.039-4.039-10.588,0-14.627
	c4.039-4.039,10.588-4.039,14.627,0C175.573,327.621,175.573,334.171,171.534,338.21z"/>
</svg>