<?xml version="1.0" encoding="iso-8859-1"?>
<!-- Uploaded to: SVG Repo, www.svgrepo.com, Generator: SVG Repo Mixer Tools -->
<svg height="800px" width="800px" version="1.1" id="Layer_1" xmlns="http://www.w3.org/2000/svg" xmlns:xlink="http://www.w3.org/1999/xlink" 
	 viewBox="0 0 473.935 473.935" xml:space="preserve">
<circle style="fill:#B1C635;" cx="236.967" cy="236.967" r="236.967"/>
<path style="fill:#828282;" d="M222.689,400.682l-2.462,20.176c0,6.634,7.439,8.677,20.389,8.677
	c12.958,0,21.669-2.043,21.669-8.677l-2.462-20.176H222.689z"/>
<path style="fill:#C0C0C0;" d="M214.805,389.685l-3.502,21.755c0,8.572,10.582,7.398,29.036,7.398
	c18.469,0,30.877,1.175,30.877-7.398l-3.51-21.755H214.805z"/>
<path style="fill:#939292;" d="M211.92,380.203l-3.888,22.522c0,9.504,11.745,8.539,32.213,8.539
	c20.479,0,34.245,0.965,34.245-8.539l-3.895-22.522H211.92z"/>
<path style="fill:#C0C0C0;" d="M210.902,371.634l-4.041,22.795c0,9.837,14.118,9.063,35.308,9.063s33.485,0.775,33.485-9.063
	l-4.034-22.795H210.902z"/>
<path style="fill:#A19F9F;" d="M210.902,378.302l-4.041,8.06c0,9.837,12.168,8.853,33.354,8.853s35.438,0.984,35.438-8.853
	l-4.034-8.06H210.902z"/>
<path style="fill:#C0C0C0;" d="M257.237,356.469h-31.959c-10.174,0-18.417,7.974-18.417,17.803v4.03
	c0,9.833,13.485,8.438,34.671,8.438c21.193,0,34.121,1.396,34.121-8.438v-4.03C275.654,364.443,267.411,356.469,257.237,356.469z"/>
<g>
	<path style="fill:#D7D7D7;" d="M285.693,138.641c-1.886,0-3.802-0.419-5.613-1.313c-0.543-0.262-45.77-21.99-83.008-6.975
		c-6.518,2.627-13.953-0.528-16.576-7.046c-2.623-6.526,0.52-13.953,7.046-16.58c47.977-19.345,101.548,6.638,103.805,7.757
		c6.301,3.117,8.887,10.75,5.774,17.059C294.902,136.04,290.385,138.641,285.693,138.641z"/>
	<path style="fill:#D7D7D7;" d="M285.693,102.559c-1.886,0-3.802-0.419-5.613-1.313c-0.543-0.262-45.77-21.99-83.008-6.978
		c-6.518,2.63-13.953-0.52-16.576-7.046c-2.623-6.526,0.52-13.946,7.046-16.576c47.977-19.345,101.548,6.642,103.805,7.753
		c6.301,3.121,8.887,10.758,5.774,17.066C294.902,99.954,290.385,102.559,285.693,102.559z"/>
	<path style="fill:#D7D7D7;" d="M285.693,174.532c-1.886,0-3.802-0.423-5.613-1.317l0,0c-0.453-0.221-45.736-22.002-83.008-6.975
		c-6.518,2.627-13.953-0.524-16.576-7.05c-2.623-6.518,0.52-13.946,7.046-16.576c47.97-19.349,101.548,6.638,103.805,7.76
		c6.301,3.113,8.887,10.75,5.774,17.059C294.902,171.928,290.385,174.532,285.693,174.532z"/>
	<path style="fill:#D7D7D7;" d="M285.693,210.232c-1.886,0-3.802-0.423-5.613-1.31c-0.543-0.266-45.77-21.99-83.008-6.978
		c-6.518,2.63-13.953-0.528-16.576-7.053c-2.623-6.518,0.52-13.942,7.046-16.572c47.977-19.349,101.548,6.638,103.805,7.757
		c6.301,3.113,8.887,10.754,5.774,17.059C294.902,207.632,290.385,210.232,285.693,210.232z"/>
	<path style="fill:#D7D7D7;" d="M285.693,245.936c-1.886,0-3.802-0.419-5.613-1.313c-0.543-0.262-45.77-21.99-83.008-6.975
		c-6.518,2.63-13.953-0.531-16.576-7.05c-2.623-6.522,0.52-13.946,7.046-16.576c47.977-19.345,101.548,6.638,103.805,7.757
		c6.301,3.117,8.887,10.754,5.774,17.059C294.902,243.332,290.385,245.936,285.693,245.936z"/>
	<path style="fill:#D7D7D7;" d="M285.693,281.641c-1.886,0-3.802-0.419-5.613-1.313l0,0c-0.445-0.224-45.728-22.009-83.008-6.978
		c-6.518,2.627-13.953-0.524-16.576-7.05c-2.623-6.522,0.52-13.946,7.046-16.572c47.977-19.353,101.548,6.638,103.805,7.757
		c6.301,3.113,8.887,10.754,5.774,17.059C294.902,279.036,290.385,281.641,285.693,281.641z"/>
</g>
<g>
	<path style="fill:#E7E7E7;" d="M194.846,310.434c-1.616,0-2.63-0.022-2.93-0.037c-7.031-0.217-12.55-6.095-12.337-13.122
		c0.221-7.027,6.05-12.595,13.126-12.333c0.913,0.011,58.065,1.283,83.977-24.722c4.969-4.988,13.029-4.995,18.013-0.037
		c4.984,4.969,4.999,13.029,0.037,18.013C264.5,308.525,208.455,310.434,194.846,310.434z"/>
	<path style="fill:#E7E7E7;" d="M194.846,274.426c-1.616,0-2.63-0.026-2.93-0.037c-7.031-0.221-12.55-6.095-12.337-13.126
		c0.221-7.031,6.05-12.576,13.126-12.333c0.913,0.019,58.065,1.283,83.977-24.722c4.969-4.984,13.029-4.995,18.013-0.034
		c4.984,4.965,4.999,13.029,0.037,18.009C264.5,272.518,208.455,274.426,194.846,274.426z"/>
	<path style="fill:#E7E7E7;" d="M194.846,238.786c-1.624,0-2.63-0.026-2.93-0.037c-7.031-0.221-12.55-6.095-12.337-13.126
		c0.221-7.023,6.05-12.591,13.126-12.329c0.913,0.007,58.065,1.28,83.977-24.729c4.962-4.98,13.029-4.992,18.013-0.03
		c4.984,4.965,4.999,13.025,0.037,18.009C264.5,236.878,208.448,238.786,194.846,238.786z"/>
	<path style="fill:#E7E7E7;" d="M194.846,202.962c-1.624,0-2.63-0.026-2.93-0.037c-7.031-0.221-12.55-6.095-12.337-13.126
		c0.221-7.023,6.155-12.535,13.119-12.337l0,0c0.576,0.019,57.983,1.369,83.984-24.722c4.962-4.984,13.029-4.992,18.013-0.03
		c4.984,4.965,4.999,13.029,0.037,18.009C264.5,201.054,208.448,202.962,194.846,202.962z"/>
	<path style="fill:#E7E7E7;" d="M194.846,167.134c-1.624,0-2.63-0.03-2.93-0.037c-7.031-0.221-12.55-6.095-12.337-13.126
		c0.221-7.031,6.05-12.591,13.126-12.337c0.913,0.015,58.065,1.287,83.977-24.722c4.962-4.984,13.029-4.999,18.013-0.034
		c4.984,4.965,4.999,13.029,0.037,18.009C264.5,165.23,208.448,167.134,194.846,167.134z"/>
</g>
<path id="SVGCleanerId_0" style="fill:#E7E7E7;" d="M194.846,131.303c-1.616,0-2.63-0.022-2.93-0.037
	c-7.031-0.213-12.55-6.092-12.337-13.119c0.221-7.031,6.155-12.554,13.119-12.337l0,0c0.591,0.022,57.983,1.366,83.984-24.722
	c4.962-4.988,13.029-4.999,18.013-0.037c4.984,4.969,4.999,13.029,0.037,18.013C264.5,129.399,208.448,131.303,194.846,131.303z"/>
<g>
	<path id="SVGCleanerId_0_1_" style="fill:#E7E7E7;" d="M194.846,131.303c-1.616,0-2.63-0.022-2.93-0.037
		c-7.031-0.213-12.55-6.092-12.337-13.119c0.221-7.031,6.155-12.554,13.119-12.337l0,0c0.591,0.022,57.983,1.366,83.984-24.722
		c4.962-4.988,13.029-4.999,18.013-0.037c4.984,4.969,4.999,13.029,0.037,18.013C264.5,129.399,208.448,131.303,194.846,131.303z"/>
</g>
<path style="fill:#E7E7E7;" d="M274.804,96.029c-0.314-0.524-7.906-12.711-30.148-11.847c-3.596,0.142-7.768,1.605-13.051,3.465
	c-9.078,3.184-21.485,7.547-39.296,7.547c-7.031,0-12.737-5.699-12.737-12.737c0-7.031,5.706-12.73,12.737-12.73
	c13.463,0,22.297-3.106,30.855-6.11c6.724-2.365,13.074-4.595,20.501-4.887c38.582-1.504,52.8,23.813,53.388,24.894l-22.376,12.168
	L274.804,96.029z"/>
<path style="fill:#EFEFEF;" d="M302.684,336.353c0,12.928-23.401,36.09-23.401,36.09h-79.33c0,0-23.409-23.158-23.409-36.09v-56.894
	h126.139V336.353z"/>
</svg>