<?xml version="1.0" encoding="iso-8859-1"?>
<!-- Uploaded to: SVG Repo, www.svgrepo.com, Generator: SVG Repo Mixer Tools -->
<!DOCTYPE svg PUBLIC "-//W3C//DTD SVG 1.1//EN" "http://www.w3.org/Graphics/SVG/1.1/DTD/svg11.dtd">
<svg height="800px" width="800px" version="1.1" id="Capa_1" xmlns="http://www.w3.org/2000/svg" xmlns:xlink="http://www.w3.org/1999/xlink" 
	 viewBox="0 0 136.955 136.955" xml:space="preserve">
<g>
	<path style="fill-rule:evenodd;clip-rule:evenodd;fill:#802D04;" d="M89.535,7.008c6.208,0.991,9.643,5.247,11.112,11.024
		c3.827,15.037-4.184,47.649-31.914,48.038c-14.299,0.2-24.6-3.436-28.352-15.01c-3.753-11.574-5.293-30.225,2.863-40.679
		C53.507-2.77,75.046-2.893,89.535,7.008z"/>
	<path style="fill-rule:evenodd;clip-rule:evenodd;fill:#FFD16E;" d="M56.739,83.669c-25.952,11.377-33.736,17.443-36.814,20.166
		c-4.742,4.196-7.365,19.838-10.162,33.12h58.715h58.715c-2.797-13.281-5.42-28.923-10.162-33.12
		c-3.077-2.723-10.577-8.633-36.529-20.01L56.739,83.669z"/>
	<path style="fill-rule:evenodd;clip-rule:evenodd;fill:#FFDECC;" d="M81.078,60.991v28.767c-6.931,8.488-18.271,8.194-25.201,0
		V60.991C55.877,45.458,81.078,45.458,81.078,60.991z"/>
	<path style="fill-rule:evenodd;clip-rule:evenodd;fill:#F7C5AA;" d="M81.078,60.991v19.26c-4.769,3.476-9.364,5.423-12.601,5.423
		s-7.833-1.947-12.601-5.422v-19.26C55.877,45.458,81.078,45.458,81.078,60.991z"/>
	<path style="fill-rule:evenodd;clip-rule:evenodd;fill:#FFDECC;" d="M68.477,9.345c-42.292,0-27.082,51.101-24.32,55.169
		c3.046,4.486,17.487,16.376,24.32,16.376S89.751,69,92.798,64.514C95.56,60.446,110.769,9.345,68.477,9.345z"/>
	<path style="fill-rule:evenodd;clip-rule:evenodd;fill:#F7C5AA;" d="M79.741,65.34c-9.915,0.456-19.72-3.194-25.715-8.609
		C54.399,64.937,73.29,71.326,79.741,65.34z"/>
	<path style="fill-rule:evenodd;clip-rule:evenodd;fill:#F7C5AA;" d="M56.632,56.018c-2.066,0.803-3.739,2.436-4.475,4.084
		C51.673,57.859,54.967,54.811,56.632,56.018z"/>
	
		<ellipse transform="matrix(-0.3127 -0.9498 0.9498 -0.3127 8.1788 94.4685)" style="fill-rule:evenodd;clip-rule:evenodd;fill:#FFDECC;" cx="38.267" cy="44.275" rx="7.317" ry="4.231"/>
	
		<ellipse transform="matrix(0.3128 -0.9498 0.9498 0.3128 25.6889 124.0569)" style="fill-rule:evenodd;clip-rule:evenodd;fill:#FFDECC;" cx="98.577" cy="44.276" rx="7.317" ry="4.231"/>
	<path style="fill-rule:evenodd;clip-rule:evenodd;fill:#802D04;" d="M89.208,22.056c-7.431,4.573-16.27,2.963-12.84-1.038
		c3.43-4.002-0.34-1.212-7.05,1.715c-6.71,2.926-14.427,2.44-9.854-0.037c5.546-3.003-16.102-4.971-20.063,25.951
		c-6.35-22.426,4.371-41.206,28.584-42.271c25.858-1.138,36.33,19.329,29.181,41.605C97.636,35.912,94.72,28.016,89.208,22.056z"/>
	<path style="fill-rule:evenodd;clip-rule:evenodd;fill:#FFFFFF;" d="M54.681,83.362l-8.937,4.837l12.959,17.963l9.832-9.327
		L54.681,83.362z"/>
	<path style="fill-rule:evenodd;clip-rule:evenodd;fill:#FFFFFF;" d="M82.389,83.362l8.937,4.837l-12.959,17.963l-9.832-9.327
		L82.389,83.362z"/>
	<path style="fill-rule:evenodd;clip-rule:evenodd;fill:#FF386A;" d="M63.059,101.85l3.051,4.728c1.578,0,3.156,0,4.734,0
		l3.052-4.728l-5.361-5.146L63.059,101.85z"/>
	<polygon style="fill-rule:evenodd;clip-rule:evenodd;fill:#FF386A;" points="66.11,106.578 61.766,136.955 75.19,136.955 
		70.845,106.578 	"/>
	<g>
		<path style="fill-rule:evenodd;clip-rule:evenodd;fill:#BA8D3A;" d="M33.69,136.955h2.012c-0.09-8.942-0.09-15.386-0.09-15.386
			S34.722,128.266,33.69,136.955z"/>
		<path style="fill-rule:evenodd;clip-rule:evenodd;fill:#BA8D3A;" d="M103.265,136.955h-2.012c0.09-8.942,0.09-15.386,0.09-15.386
			S102.233,128.266,103.265,136.955z"/>
	</g>
</g>
</svg>