<?xml version="1.0" encoding="iso-8859-1"?>
<!-- Uploaded to: SVG Repo, www.svgrepo.com, Generator: SVG Repo Mixer Tools -->
<!DOCTYPE svg PUBLIC "-//W3C//DTD SVG 1.1//EN" "http://www.w3.org/Graphics/SVG/1.1/DTD/svg11.dtd">
<svg height="800px" width="800px" version="1.1" id="Capa_1" xmlns="http://www.w3.org/2000/svg" xmlns:xlink="http://www.w3.org/1999/xlink" 
	 viewBox="0 0 145.015 145.015" xml:space="preserve">
<g>
	<path style="fill-rule:evenodd;clip-rule:evenodd;fill:#C76452;" d="M60.769,91.729c-25.952,11.377-33.736,17.443-36.815,20.166
		c-4.742,4.196-7.365,19.838-10.162,33.12h58.715h58.715c-2.798-13.281-5.421-28.924-10.163-33.12
		c-3.077-2.723-10.577-8.633-36.528-20.01L60.769,91.729z"/>
	<path style="fill-rule:evenodd;clip-rule:evenodd;fill:#C34A34;" d="M42.615,100.25v44.765h-3.836v-42.758
		C39.965,101.619,41.242,100.951,42.615,100.25L42.615,100.25z M60.769,91.729l-0.783,0.344v52.941h3.836V91.749L60.769,91.729
		L60.769,91.729z M53.218,95.122c-1.338,0.618-2.615,1.216-3.836,1.797v48.096h3.836V95.122L53.218,95.122z M32.011,106.122
		c-1.512,0.927-2.773,1.755-3.836,2.494v36.399h3.836V106.122L32.011,106.122z M21.408,115.551
		c-1.465,2.975-2.705,7.122-3.836,11.765v17.7h3.836V115.551L21.408,115.551z M70.59,145.015h1.918h1.918V91.819l-3.836-0.025
		V145.015L70.59,145.015z M81.193,145.015h3.835V92.104l-0.497-0.219l-3.338-0.022V145.015L81.193,145.015z M91.797,145.015h3.836
		V96.938c-1.221-0.579-2.498-1.176-3.836-1.791V145.015L91.797,145.015z M102.4,145.015h3.835v-42.756
		c-1.186-0.635-2.46-1.301-3.835-2.001V145.015L102.4,145.015z M113.004,145.015h3.835v-36.408c-1.06-0.737-2.321-1.566-3.835-2.493
		V145.015L113.004,145.015z M123.607,145.015h3.835v-17.698c-1.13-4.644-2.37-8.791-3.835-11.766V145.015z"/>
	<g>
		<path style="fill-rule:evenodd;clip-rule:evenodd;fill:#C34A34;" d="M21.037,116.34h102.941c0.516,1.144,1.003,2.433,1.468,3.835
			H19.57C20.035,118.772,20.521,117.484,21.037,116.34z"/>
		<path style="fill-rule:evenodd;clip-rule:evenodd;fill:#C34A34;" d="M17.664,126.943H127.35c0.307,1.246,0.604,2.528,0.896,3.836
			H16.767C17.059,129.471,17.357,128.188,17.664,126.943z"/>
		<path style="fill-rule:evenodd;clip-rule:evenodd;fill:#C34A34;" d="M15.33,137.546h114.354c0.263,1.281,0.524,2.563,0.785,3.835
			H14.545C14.806,140.109,15.067,138.827,15.33,137.546z"/>
	</g>
	<g>
		<path style="fill-rule:evenodd;clip-rule:evenodd;fill:#9D3421;" d="M21.037,116.34h0.371v3.835H19.57l0.153-0.456l0.003-0.007
			l0.06-0.179l0.002-0.007l0.111-0.318l0.01-0.027l0.013-0.037l0.09-0.25l0.023-0.061v-0.002l0.063-0.169l0.005-0.016l0.058-0.154
			l0.011-0.03l0.023-0.061l0.023-0.06l0.006-0.017l0.039-0.104l0.024-0.061l0.001-0.003l0.021-0.056l0.023-0.06l0.019-0.049
			l0.004-0.01l0.024-0.059l0.022-0.059l0.015-0.036l0.009-0.023l0.022-0.059l0.024-0.059l0.009-0.022l0.015-0.037l0.023-0.058
			l0.023-0.058l0.003-0.008l0.021-0.05l0.023-0.058l0.021-0.053l0.002-0.005l0.023-0.057l0.024-0.058l0.016-0.039l0.008-0.018
			l0.023-0.057l0.024-0.056l0.011-0.026l0.013-0.03l0.024-0.056l0.024-0.056l0.005-0.013l0.018-0.042l0.024-0.056l0.024-0.055l0,0
			l0.023-0.055l0.024-0.055l0.019-0.043l0.005-0.012l0.024-0.054l0.024-0.054l0.013-0.029l0.011-0.024L21.037,116.34L21.037,116.34z
			 M28.175,116.34h3.836v3.835h-3.836V116.34L28.175,116.34z M38.779,116.34h3.836v3.835h-3.836V116.34L38.779,116.34z
			 M49.382,116.34h3.836v3.835h-3.836V116.34L49.382,116.34z M59.986,116.34h3.836v3.835h-3.836V116.34L59.986,116.34z
			 M70.59,116.34h3.836v3.835H70.59V116.34L70.59,116.34z M81.193,116.34h3.835v3.835h-3.835V116.34L81.193,116.34z M91.797,116.34
			h3.836v3.835h-3.836V116.34L91.797,116.34z M102.4,116.34h3.835v3.835H102.4V116.34L102.4,116.34z M113.004,116.34h3.835v3.835
			h-3.835V116.34L113.004,116.34z M123.607,116.34h0.37l0.024,0.054l0.012,0.024l0.013,0.029l0.023,0.054l0.024,0.054l0.006,0.013
			l0.018,0.042l0.024,0.055l0.024,0.055l0.023,0.055l0.023,0.056l0.019,0.043l0.005,0.012l0.024,0.056l0.024,0.056l0.013,0.03
			l0.011,0.026l0.024,0.056l0.023,0.057l0.007,0.018l0.017,0.039l0.023,0.058l0.023,0.057l0.002,0.005l0.021,0.052l0.023,0.058
			l0.02,0.05l0.004,0.008l0.023,0.058l0.022,0.058l0.015,0.038l0.009,0.021l0.023,0.059l0.022,0.059l0.01,0.024l0.014,0.035
			l0.023,0.059l0.023,0.059l0.005,0.011l0.019,0.049l0.022,0.06l0.021,0.057l0.002,0.003l0.022,0.061l0.039,0.104l0.007,0.017
			l0.022,0.06l0.022,0.061l0.012,0.03l0.012,0.031l0.045,0.123l0.006,0.017l0.017,0.045l0.022,0.063l0.022,0.062l0.001,0.002
			l0.021,0.06l0.002,0.005l0.039,0.108l0.004,0.012l0.045,0.126l0.013,0.037l0.01,0.027l0.022,0.063l0.021,0.063l0.008,0.022
			l0.06,0.169l0.003,0.008l0.061,0.178l0.002,0.007l0.045,0.129l0.014,0.043l0.029,0.087l0.022,0.065l0.009,0.029l0.013,0.037
			l0.021,0.065h-1.837V116.34z"/>
		<path style="fill-rule:evenodd;clip-rule:evenodd;fill:#9D3421;" d="M17.664,126.943h3.744v3.836h-3.836v-3.462v0l0.006-0.022
			l0.015-0.059l0.015-0.059l0.014-0.059l0.005-0.02l0.01-0.039l0.014-0.058L17.664,126.943L17.664,126.943z M28.175,126.943h3.836
			v3.836h-3.836V126.943L28.175,126.943z M38.779,126.943h3.836v3.836h-3.836V126.943L38.779,126.943z M49.382,126.943h3.836v3.836
			h-3.836V126.943L49.382,126.943z M59.986,126.943h3.836v3.836h-3.836V126.943L59.986,126.943z M70.59,126.943h3.836v3.836H70.59
			V126.943L70.59,126.943z M81.193,126.943h3.835v3.836h-3.835V126.943L81.193,126.943z M91.797,126.943h3.836v3.836h-3.836V126.943
			L91.797,126.943z M102.4,126.943h3.835v3.836H102.4V126.943L102.4,126.943z M113.004,126.943h3.835v3.836h-3.835V126.943
			L113.004,126.943z M123.607,126.943h3.743l0.015,0.058l0.014,0.058l0.011,0.04l0.004,0.019l0.015,0.059l0.015,0.059l0.014,0.059
			l0.006,0.023l0,0v3.461h-3.835V126.943z"/>
		<path style="fill-rule:evenodd;clip-rule:evenodd;fill:#9D3421;" d="M17.572,137.546h3.836v3.835h-3.836V137.546L17.572,137.546z
			 M28.175,137.546h3.836v3.835h-3.836V137.546L28.175,137.546z M38.779,137.546h3.836v3.835h-3.836V137.546L38.779,137.546z
			 M49.382,137.546h3.836v3.835h-3.836V137.546L49.382,137.546z M59.986,137.546h3.836v3.835h-3.836V137.546L59.986,137.546z
			 M70.59,137.546h3.836v3.835H70.59V137.546L70.59,137.546z M81.193,137.546h3.835v3.835h-3.835V137.546L81.193,137.546z
			 M91.797,137.546h3.836v3.835h-3.836V137.546L91.797,137.546z M102.4,137.546h3.835v3.835H102.4V137.546L102.4,137.546z
			 M113.004,137.546h3.835v3.835h-3.835V137.546L113.004,137.546z M123.607,137.546h3.835v3.835h-3.835V137.546z"/>
	</g>
	<g>
		<path style="fill-rule:evenodd;clip-rule:evenodd;fill:#9D3421;" d="M37.72,145.015h2.012c-0.09-8.942-0.091-15.386-0.091-15.386
			S38.751,136.326,37.72,145.015z"/>
		<path style="fill-rule:evenodd;clip-rule:evenodd;fill:#9D3421;" d="M107.295,145.015h-2.012c0.09-8.942,0.09-15.386,0.09-15.386
			S106.263,136.326,107.295,145.015z"/>
	</g>
	<path style="fill-rule:evenodd;clip-rule:evenodd;fill:#FFDECC;" d="M85.108,69.051v28.767c-6.931,8.488-18.271,8.194-25.201,0
		V69.051C59.907,53.518,85.108,53.518,85.108,69.051z"/>
	<path style="fill-rule:evenodd;clip-rule:evenodd;fill:#F7C5AA;" d="M85.108,71.895v19.26c-4.769,3.476-9.364,5.423-12.601,5.423
		c-3.236,0-7.833-1.948-12.601-5.423v-19.26C59.907,56.363,85.108,56.363,85.108,71.895z"/>
	<path style="fill-rule:evenodd;clip-rule:evenodd;fill:#B6DBFC;" d="M100.011,15.915l3.185,23.497
		c1.149,8.473-8.593,14.29-13.404,14.29H54.987c-4.811,0-14.553-5.816-13.404-14.29l3.186-23.497
		C47.644-5.305,97.134-5.305,100.011,15.915z"/>
	<path style="fill-rule:evenodd;clip-rule:evenodd;fill:#86BCEB;" d="M72.389,56.647c25.218,0,45.786-9.167,45.786-20.406
		c0-11.239-20.568-20.405-45.786-20.405c-25.218,0-45.786,9.166-45.786,20.405C26.603,47.481,47.172,56.647,72.389,56.647z"/>
	<path style="fill-rule:evenodd;clip-rule:evenodd;fill:#86BCEB;" d="M52.17,22.759C57.928,12.531,64.011,0.122,72.721,0.47
		C81.097,0.136,87.045,11.6,92.609,21.575c-5.396-0.992-11.313-1.541-17.518-1.541C66.74,20.035,58.911,21.027,52.17,22.759z"/>
	<path style="fill-rule:evenodd;clip-rule:evenodd;fill:#FFDECC;" d="M72.507,21.795c-42.292,0-27.083,46.711-24.32,50.779
		c3.046,4.486,17.487,16.376,24.32,16.376c6.832,0,21.273-11.89,24.32-16.376C99.59,68.506,114.799,21.795,72.507,21.795z"/>
	<path style="fill-rule:evenodd;clip-rule:evenodd;fill:#F7C5AA;" d="M58.948,68.102c9.258,3.58,19.715,3.231,27.119,0
		C83.107,75.765,63.166,75.827,58.948,68.102z"/>
	<path style="fill-rule:evenodd;clip-rule:evenodd;fill:#F7C5AA;" d="M61.691,66.599c-1.705,1.418-2.773,3.497-2.947,5.294
		C57.572,69.918,59.728,65.982,61.691,66.599z"/>
	<path style="fill-rule:evenodd;clip-rule:evenodd;fill:#F7C5AA;" d="M83.134,66.599c1.705,1.418,2.773,3.497,2.947,5.294
		C87.253,69.918,85.097,65.982,83.134,66.599z"/>
	<path style="fill-rule:evenodd;clip-rule:evenodd;fill:#802D04;" d="M99.353,42.804c-0.113-5.094-5.512-14.609-9.051-16.159
		c-3.539-1.55-21.44,0.386-30.682,5.535c-9.995,5.568-14.168,11.771-13.962,16.794c0.146,3.526-1.352,1.36-2.321,1.051
		c-0.203-5.245,0.059-15.944,1.474-20.697c1.516-5.091,14.638-8.132,28.794-7.941c14.157,0.19,19.558,2.236,24.483,5.19
		c3.499,2.099,5.27,23.85,2.159,22.706C99.071,48.85,99.42,45.752,99.353,42.804z"/>
	
		<ellipse transform="matrix(-0.3127 -0.9498 0.9498 -0.3127 3.5881 112.7748)" style="fill-rule:evenodd;clip-rule:evenodd;fill:#FFDECC;" cx="42.594" cy="55.089" rx="7.317" ry="4.231"/>
	
		<ellipse transform="matrix(0.3128 -0.9498 0.9498 0.3128 18.3912 135.5985)" style="fill-rule:evenodd;clip-rule:evenodd;fill:#FFDECC;" cx="102.904" cy="55.09" rx="7.317" ry="4.231"/>
	<path style="fill-rule:evenodd;clip-rule:evenodd;fill:#86BCEB;" d="M46.277,97.941c-12.185,0-14.723,1.344-15.23,8.507
		c-0.507,7.164,1.523,24.178,9.138,33.58c7.614,9.403,3.554-1.343,4.569-8.955c1.016-7.611,2.538,10.746,6.092,2.239
		C54.398,124.806,49.83,118.985,46.277,97.941z"/>
	<path style="fill-rule:evenodd;clip-rule:evenodd;fill:#86BCEB;" d="M106.903,101.215c5.546,0,12.396,2.809,7.503,8.936
		c-4.893,6.127-7.503,20.168-7.829,26.04c-0.326,5.872-3.914,9.957-3.914,5.106c0-4.851-4.567-16.084-5.872-11.233
		c-1.305,4.851-6.198,9.701-5.546,0.511C91.897,121.384,94.507,96.109,106.903,101.215z"/>
	<path style="fill-rule:evenodd;clip-rule:evenodd;fill:#86BCEB;" d="M106.113,103.296c-10.557,11.436-42.769,26.792-63.881-0.478
		c-2.328-7.089-1.674-10.879,4.483-9.12c-0.439-6.597,5.51-9.057,11.228-5.978c8.356,8.797,26.96,4.271,30.478-1.447
		c5.439-1.48,8.832,0.712,8.832,8.189C108.25,89.184,110.511,97.578,106.113,103.296z"/>
	<g>
		<path style="fill-rule:evenodd;clip-rule:evenodd;fill:#345E82;" d="M102.325,114.332v-3.816c1.868-2.492,3.969-4.247,5.629-4.784
			C106.763,106.724,104.47,110.064,102.325,114.332L102.325,114.332z M102.325,108.932c2.106-1.592,3.945-3.914,4.649-6.755l0,0
			c-0.88,1.65-2.674,3.3-4.649,4.773V108.932z M102.325,106.95v1.982c-2.073,1.567-4.404,2.426-6.162,2.372v-0.399
			C97.802,109.949,100.172,108.555,102.325,106.95L102.325,106.95z M102.325,110.516c-3.034,4.045-5.457,10.03-4.394,15.9
			c0.837-4.115,2.562-8.438,4.394-12.084V110.516L102.325,110.516z M96.163,95.299v-0.14c0.203-0.156,0.4-0.312,0.591-0.465l0,0
			C96.563,94.895,96.365,95.098,96.163,95.299z M43.827,127.683c-0.389-0.682-0.757-1.441-1.106-2.256v1.158
			C43.073,126.975,43.44,127.343,43.827,127.683L43.827,127.683z M96.163,95.159v0.14c-8.895,8.896-29.255,17.858-47.063-0.02
			C67.264,110.012,87.52,101.818,96.163,95.159L96.163,95.159z M96.163,110.904l-0.59,0.344c0.188,0.031,0.386,0.049,0.59,0.055
			V110.904L96.163,110.904z M42.721,105.895v-2.393c1.597,2.152,3.96,4.379,5.41,5.54C46.176,108.924,43.998,107.777,42.721,105.895
			z M42.721,125.427c-3.284-7.677-4.769-20.397-3.661-22.392c-3.422,2.62-2.56,16.659,3.661,23.55V125.427L42.721,125.427z
			 M42.721,103.502v2.393c-0.762-1.122-1.203-2.504-1.087-4.086C41.92,102.353,42.293,102.926,42.721,103.502z"/>
	</g>
</g>
</svg>