<?xml version="1.0" encoding="utf-8"?><!-- Uploaded to: SVG Repo, www.svgrepo.com, Generator: SVG Repo Mixer Tools -->
<svg fill="#000000" width="800px" height="800px" viewBox="0 0 24 24" id="computer-mouse" data-name="Flat Color" xmlns="http://www.w3.org/2000/svg" class="icon flat-color"><path id="primary" d="M17.54,4.38A7.62,7.62,0,0,0,4.39,10l.28,5a7.34,7.34,0,0,0,14.66,0l.28-5A7.56,7.56,0,0,0,17.54,4.38Z" style="fill: rgb(0, 0, 0);"></path><path id="secondary" d="M19.61,10l-.05,1H4.44l-.05-1a7.21,7.21,0,0,1,0-1H11V2.07a7.18,7.18,0,0,1,2,0V9h6.6A7.21,7.21,0,0,1,19.61,10Z" style="fill: rgb(44, 169, 188);"></path></svg>