<?xml version="1.0" encoding="iso-8859-1"?>
<!-- Uploaded to: SVG Repo, www.svgrepo.com, Generator: SVG Repo Mixer Tools -->
<svg version="1.1" id="Layer_1" xmlns="http://www.w3.org/2000/svg" xmlns:xlink="http://www.w3.org/1999/xlink" 
	 viewBox="0 0 512.001 512.001" xml:space="preserve">
<rect x="157.578" y="221.668" style="fill:#EBEBEB;" width="93.124" height="51.492"/>
<rect x="97.321" y="331.226" style="fill:#A8A8A8;" width="213.638" height="169.815"/>
<path style="fill:#2969B0;" d="M233.451,270.973h-58.613c-26.169,0-47.384,21.215-47.384,47.384v12.873h153.381v-12.873
	C280.835,292.188,259.62,270.973,233.451,270.973z"/>
<path style="fill:#FFAC3D;" d="M500.133,215.225c0,18.153-14.715,32.867-32.867,32.867s-32.867-14.715-32.867-32.867
	s32.867-56.128,32.867-56.128S500.133,197.073,500.133,215.225z"/>
<rect x="29.399" y="117.764" style="fill:#2969B0;" width="52.04" height="53.136"/>
<g>
	<path style="fill:#231F20;" d="M384.586,39.397c13.94-11.277,31.487-17.485,49.417-17.485h33.263
		c6.05,0,10.956-4.905,10.956-10.956S473.316,0,467.266,0h-33.263c-22.973,0-45.451,7.969-63.295,22.442
		c-0.054,0.043-0.106,0.087-0.159,0.131L197.085,168.741c-2.471,2.082-3.897,5.147-3.897,8.378v33.598h-54.061l-21.054-29.565
		c-6.377-8.953-15.451-15.46-25.678-18.757v-44.627c0-6.051-4.906-10.956-10.956-10.956h-52.04c-6.05,0-10.956,4.905-10.956,10.956
		v53.136c0,6.051,4.906,10.956,10.956,10.956h47.543c9.227,0,17.93,4.487,23.284,12.004l12.002,16.854H85.274
		c-4.025,0-7.726,2.206-9.639,5.747L2.231,352.316c-2.876,5.323-0.892,11.97,4.431,14.847c1.657,0.895,3.44,1.319,5.199,1.319
		c3.896,0,7.667-2.083,9.649-5.75l70.298-130.104h54.819v34.686c-17.949,9.96-30.128,29.102-30.128,51.043v1.917H97.325
		c-6.05,0-10.956,4.905-10.956,10.956v169.815c0,6.051,4.906,10.956,10.956,10.956h213.638c6.05,0,10.956-4.905,10.956-10.956
		V331.231c0-6.051-4.906-10.956-10.956-10.956H291.79v-1.917c0-21.941-12.18-41.083-30.128-51.043v-45.642
		c0-6.051-4.906-10.956-10.956-10.956H215.1v-28.503L384.586,39.397z M40.355,159.946v-31.224h30.128v31.224H40.355z
		 M300.007,437.501h-78.882c-6.05,0-10.956,4.905-10.956,10.956c0,6.051,4.906,10.956,10.956,10.956h78.882v30.676H108.281v-96.046
		h78.517c6.05,0,10.956-4.905,10.956-10.956c0-6.051-4.906-10.956-10.956-10.956h-78.517v-29.945h191.726L300.007,437.501
		L300.007,437.501z M269.879,320.274H138.409v-1.917c0-20.086,16.342-36.428,36.428-36.428h58.613
		c20.086,0,36.428,16.342,36.428,36.428V320.274z M239.75,260.363c-2.071-0.224-69.142-0.224-71.213,0v-27.735h71.213V260.363z"/>
	<path style="fill:#231F20;" d="M475.551,151.928c-2.08-2.404-5.104-3.786-8.285-3.786s-6.203,1.382-8.285,3.786
		c-5.935,6.857-35.538,42.134-35.538,63.297c0,24.164,19.659,43.823,43.823,43.823c24.164,0,43.823-19.659,43.823-43.823
		C511.089,194.062,481.485,158.785,475.551,151.928z M467.266,237.137c-12.082,0-21.912-9.83-21.912-21.912
		c0-7.022,10.286-23.772,21.912-38.81c11.626,15.039,21.912,31.788,21.912,38.81C489.177,227.307,479.348,237.137,467.266,237.137z"
		/>
	<path style="fill:#231F20;" d="M232.081,372.132h-2.191c-6.05,0-10.956,4.905-10.956,10.956c0,6.051,4.906,10.956,10.956,10.956
		h2.191c6.05,0,10.956-4.905,10.956-10.956C243.037,377.037,238.132,372.132,232.081,372.132z"/>
</g>
</svg>