<?xml version="1.0" encoding="iso-8859-1"?>
<!-- Uploaded to: SVG Repo, www.svgrepo.com, Generator: SVG Repo Mixer Tools -->
<svg height="800px" width="800px" version="1.1" id="Layer_1" xmlns="http://www.w3.org/2000/svg" xmlns:xlink="http://www.w3.org/1999/xlink" 
	 viewBox="0 0 512 512" xml:space="preserve">
<path style="fill:#D7EBFF;" d="M217.294,129.092l-11.468-7.984c-19.674-13.695-42.74-20.934-66.696-20.934H55.652
	c-18.413,0-33.391-14.978-33.391-33.391V33.391C22.261,14.978,37.239,0,55.652,0h83.478c48.511,0,96.185,16.577,134.239,46.679
	l14.707,11.636L217.294,129.092z"/>
<path style="fill:#665247;" d="M339.489,333.913c-5.392,0-10.685-2.609-13.902-7.435c-5.12-7.674-3.043-18.038,4.63-23.152
	c15.108-10.071,24.772-26.902,25.858-45.027c0.543-9.196,8.261-16.185,17.652-15.674c9.206,0.549,16.228,8.457,15.674,17.663
	c-1.695,28.505-16.903,54.983-40.663,70.821C345.892,333.006,342.674,333.913,339.489,333.913z"/>
<path style="fill:#736056;" d="M422.957,384c0,9.238-7.457,16.696-16.696,16.696h-66.783c-5.677,0-11.353-0.557-16.696-1.67
	C284.717,391.235,256,357.621,256,317.217v-66.783c0-9.238,7.457-16.696,16.696-16.696c9.238,0,16.696,7.457,16.696,16.696v66.783
	c0,21.704,13.913,40.292,33.391,47.193c5.231,1.892,10.797,2.894,16.696,2.894h66.783C415.499,367.304,422.957,374.762,422.957,384z
	"/>
<path style="fill:#E6563A;" d="M473.043,400.696h-66.783c-9.217,0-16.696-7.473-16.696-16.696v-66.783
	c0-17.821-9.641-34.456-25.163-43.424c-7.522-4.364-16.141-6.663-24.924-6.663H239.304c-27.619,0-50.087-22.468-50.087-50.087
	V116.87c0-4.424,1.761-8.674,4.892-11.804l89.043-89.043c3.13-3.131,7.379-4.892,11.804-4.892h44.522
	c82.858,0,150.261,67.408,150.261,150.261V384C489.739,393.223,482.261,400.696,473.043,400.696z"/>
<path style="fill:#665247;" d="M422.957,384c0,9.238-7.457,16.696-16.696,16.696h-66.783c-5.677,0-11.353-0.557-16.696-1.67V364.41
	c5.231,1.892,10.797,2.894,16.696,2.894h66.783C415.499,367.304,422.957,374.762,422.957,384z"/>
<path style="fill:#D9472B;" d="M339.478,11.13h-16.696v256h16.696c8.783,0,17.402,2.298,24.924,6.663
	c15.521,8.968,25.163,25.603,25.163,43.424V384c0,9.223,7.479,16.696,16.696,16.696h66.783c9.217,0,16.696-7.473,16.696-16.696
	V161.391C489.739,78.539,422.337,11.13,339.478,11.13z"/>
<path style="fill:#665247;" d="M456.348,512h-33.391c-18.442,0-33.391-14.949-33.391-33.391V367.304h100.174v111.304
	C489.739,497.051,474.79,512,456.348,512z"/>
</svg>