<?xml version="1.0" encoding="iso-8859-1"?>
<!-- Uploaded to: SVG Repo, www.svgrepo.com, Generator: SVG Repo Mixer Tools -->
<svg height="800px" width="800px" version="1.1" id="Layer_1" xmlns="http://www.w3.org/2000/svg" xmlns:xlink="http://www.w3.org/1999/xlink" 
	 viewBox="0 0 496.2 496.2" xml:space="preserve">
<path style="fill:#4ABC96;" d="M248.1,0C111.1,0,0,111.1,0,248.1s111.1,248.1,248.1,248.1s248.1-111.1,248.1-248.1S385.1,0,248.1,0z
	"/>
<path style="fill:#5D8A94;" d="M418.5,382.8c-8.5-27.3-81.2-49.3-170.8-49.3s-161.5,22-170,49.3c-2.6,8.5-5.5,22.2-8.3,37.4
	c45.1,46.9,108.5,76,178.7,76s133.6-29.2,178.7-76C424.1,405,421.2,391.2,418.5,382.8z"/>
<path style="fill:#283030;" d="M296.9,323.8c-12.9-17.6-30.2-27.2-48.8-27.2s-35.9,9.7-48.8,27.2c-12.4,16.9-19.2,39.3-19.2,63
	s6.8,46.1,19.2,63c12.9,17.6,30.2,27.2,48.8,27.2s35.9-9.7,48.8-27.2c12.4-16.9,19.2-39.3,19.2-63S309.3,340.8,296.9,323.8z
	 M248.1,463.1c-29.8,0-54.1-34.2-54.1-76.2s24.3-76.2,54.1-76.2s54.1,34.2,54.1,76.2S277.9,463.1,248.1,463.1z"/>
<path style="fill:#E2A379;" d="M367.3,447.5l4.1,16c11.4-6.5,22.2-13.9,32.3-22.1L367.3,447.5z"/>
<path style="fill:#496C72;" d="M363.5,432.8l3.7,14.6l36.4-6.1c7.3-5.9,14.2-12.1,20.8-18.7L363.5,432.8z"/>
<path style="fill:#E2A379;" d="M92.6,441.3c9.9,8,20.4,15.2,31.4,21.6l4-15.6L92.6,441.3z"/>
<path style="fill:#496C72;" d="M71.8,422.6c6.6,6.6,13.5,12.9,20.8,18.7l35.4,6l3.7-14.6L71.8,422.6z"/>
<g>
	<path style="fill:#E2A379;" d="M287,282.1h-77.8c12.1,36.6,1,53.3,1,53.3l26.9,6.1h22l26.9-6.1C286,335.4,274.9,318.7,287,282.1z"
		/>
	<path style="fill:#E2A379;" d="M247.9,317l-37.7,18.4c0,0,16.8,28.1,37.6,28.1s38.2-28.1,38.2-28.1L247.9,317z"/>
</g>
<g>
	<path style="fill:#F4B382;" d="M248.1,61.6c-48.7,0-88.3,21.2-88.3,113.6c0,31.3,6.2,55.8,15.5,74.7c20.4,41.6,55.7,56.1,72.8,56.1
		s52.4-14.5,72.8-56.1c9.3-18.9,15.5-43.4,15.5-74.7C336.4,82.8,296.8,61.6,248.1,61.6z"/>
	<path style="fill:#F4B382;" d="M161.4,178c-8.4,1.4-14.9,5.1-10.1,32.9s10.7,29.1,19.1,27.7L161.4,178z"/>
	<path style="fill:#F4B382;" d="M334.9,178l-9,60.6c8.4,1.4,14.3,0.1,19.1-27.7C349.7,183.1,343.3,179.5,334.9,178z"/>
</g>
<path style="fill:#E5A173;" d="M259.3,255.1c-3.2-0.5-11.2,2.6-11.2,2.6s-8.1-3-11.3-2.6c-5.2,0.7-12.8,4.8-12.8,6.2
	c0,2.3,10.8,8.5,24.2,8.5c13.4,0,24.2-6.3,24.2-8.5C272.3,261.3,264.5,255.8,259.3,255.1z"/>
<path style="fill:#D89364;" d="M248.1,262.4c-14.3,0-24.2-1.1-24.2-1.1c0,2.3,10.8,11.1,24.2,11.1s24.2-8.8,24.2-11.1
	C272.3,261.3,262.4,262.4,248.1,262.4z"/>
<g>
	<path style="fill:#3F1C0A;" d="M248.1,59.1c-58,0-88.3,23.7-88.3,116.1l38.8-68.4c0,0,27.5,4.3,49.5,4.3s46.2-4.3,46.2-4.3
		l42.1,68.4C336.4,82.8,306.1,59.1,248.1,59.1z"/>
	<path style="fill:#3F1C0A;" d="M180.1,138.6l-14.6,2.2c-4.2,10.9-5.6,24.4-5.6,37.5c0,0,8.8-1.9,8.8,2.6l2.8,27.6l3.9-1.9
		C175,183.6,180.1,138.6,180.1,138.6z"/>
	<path style="fill:#3F1C0A;" d="M330.8,140.8l-14.6-0.4c0,0,5.1,43.2,4.9,66.2l3.9,1.9l2.8-27.6c0-4.5,8.8-2.6,8.8-2.6
		C336.5,165.1,335.1,151.7,330.8,140.8z"/>
</g>
<path style="fill:#010101;" d="M199.6,406.1h-11.5c-1.5,0-2.7,2.2-2.7,5s1.2,5,2.7,5h11.5c1.5,0,2.7-2.2,2.7-5
	S201.1,406.1,199.6,406.1z"/>
<g>
	<path style="fill:#202121;" d="M310.5,419.2H185.7c-4.8,0-8.8,3.9-8.8,8.8v57.8c22.5,6.7,46.4,10.4,71.2,10.4
		c24.7,0,48.6-3.6,71.1-10.4V428C319.3,423.2,315.3,419.2,310.5,419.2z"/>
	<path style="fill:#202121;" d="M229.3,411.1h-43.5c-4.9,0-8.9,4.8-8.9,10.7v25.3c0,5.9,4,10.7,8.9,10.7h43.5
		c4.9,0,8.9-4.8,8.9-10.7v-25.3C238.2,415.9,234.2,411.1,229.3,411.1z"/>
</g>
<path style="fill:#010101;" d="M248.1,416.7c-24.1,0-43.7,19.6-43.7,43.7c0,13.9,6.5,26.3,16.6,34.3c8.9,1,17.9,1.5,27.1,1.5
	c9.1,0,18.2-0.5,27-1.5c10.1-8,16.6-20.4,16.6-34.3C291.8,436.3,272.2,416.7,248.1,416.7z"/>
<path style="fill:#231F20;" d="M248.1,418.9c-22.9,0-41.5,18.6-41.5,41.5c0,14.5,7.5,27.3,18.8,34.7c7.5,0.7,15,1,22.7,1
	c7.6,0,15.2-0.4,22.7-1c11.3-7.4,18.8-20.2,18.8-34.7C289.6,437.5,271,418.9,248.1,418.9z"/>
<path style="fill:#979797;" d="M248.1,421.1c-21.7,0-39.3,17.6-39.3,39.3c0,15.4,8.9,28.7,21.8,35.1c5.8,0.4,11.6,0.6,17.5,0.6
	s11.7-0.2,17.5-0.6c12.9-6.4,21.8-19.8,21.8-35.2C287.4,438.7,269.8,421.1,248.1,421.1z"/>
<path style="fill:#231F20;" d="M248.1,422.9c-20.7,0-37.5,16.8-37.5,37.5c0,16.5,10.6,30.4,25.4,35.5c4,0.2,8.1,0.3,12.1,0.3
	c4.1,0,8.1-0.1,12.1-0.3c14.8-5,25.4-19,25.4-35.5C285.6,439.7,268.8,422.9,248.1,422.9z"/>
<path style="fill:#010101;" d="M248.3,426c-19,0-34.5,15.4-34.5,34.5c0,19,15.4,34.5,34.5,34.5s34.5-15.4,34.5-34.5
	S267.4,426,248.3,426z"/>
<path style="fill:#231F20;" d="M248.3,427.7c-18.1,0-32.7,14.6-32.7,32.7s14.6,32.7,32.7,32.7s32.7-14.6,32.7-32.7
	C281.1,442.3,266.4,427.7,248.3,427.7z"/>
<path style="fill:#595A5C;" d="M248.3,429.5c-17.1,0-30.9,13.9-30.9,30.9c0,17.1,13.9,31,30.9,31c17.1,0,30.9-13.9,30.9-31
	C279.3,443.3,265.4,429.5,248.3,429.5z"/>
<path style="fill:#231F20;" d="M248.3,430.8c-16.3,0-29.6,13.2-29.6,29.6c0,16.3,13.2,29.6,29.6,29.6c16.3,0,29.6-13.2,29.6-29.6
	C277.9,444.1,264.7,430.8,248.3,430.8z"/>
<path style="fill:#A5B6B9;" d="M248.3,434.8c-14.2,0-25.6,11.5-25.6,25.6c0,14.2,11.5,25.6,25.6,25.6c14.2,0,25.6-11.5,25.6-25.6
	C274,446.2,262.5,434.8,248.3,434.8z"/>
<path style="fill:#FFFFFF;" d="M239.7,439.5c-6.8,0-12.3,5.5-12.3,12.3s5.5,12.3,12.3,12.3s12.3-5.5,12.3-12.3
	S246.5,439.5,239.7,439.5z"/>
<g>
	<path style="fill:#66B9CC;" d="M184.8,416.1c-1.8,0-3.2,1.4-3.2,3.2v2.4v0.2l5.8-5.8L184.8,416.1L184.8,416.1z"/>
	<path style="fill:#66B9CC;" d="M206.4,416.1h-4.2l-18.3,18.3c0.3,0.1,0.6,0.2,1,0.2h15.2l9.6-9.6v-5.7
		C209.6,417.6,208.2,416.1,206.4,416.1z"/>
</g>
<g>
	<path style="fill:#D7E4F4;" d="M187.4,416.1l-5.8,5.8v2.4v7.1c0,1.4,0.9,2.6,2.2,3l18.3-18.3H187.4z"/>
	<path style="fill:#D7E4F4;" d="M200,434.6h6.4c1.8,0,3.2-1.4,3.2-3.2V425L200,434.6z"/>
</g>
</svg>