<?xml version="1.0" encoding="iso-8859-1"?>
<!-- Uploaded to: SVG Repo, www.svgrepo.com, Generator: SVG Repo Mixer Tools -->
<svg height="800px" width="800px" version="1.1" id="Layer_1" xmlns="http://www.w3.org/2000/svg" xmlns:xlink="http://www.w3.org/1999/xlink" 
	 viewBox="0 0 512 512" xml:space="preserve">
<circle style="fill:#273B7A;" cx="256" cy="256" r="256"/>
<path style="fill:#121149;" d="M274.606,511.322C407.024,501.81,511.55,391.59,511.99,256.852l-57.741-57.74l-282.864,72.835
	l9.775,9.775l-90.965,45.19L274.606,511.322z"/>
<path style="fill:#38C6D9;" d="M244.793,266.347c-4.33,0-8.366-2.741-9.811-7.075c-1.807-5.42,1.122-11.278,6.542-13.084
	l170.667-56.889c1.055-0.352,2.16-0.531,3.27-0.531h28.444c5.711,0,10.343,4.632,10.343,10.343c0,5.711-4.632,10.343-10.343,10.343
	H417.14l-169.074,56.358C246.981,266.174,245.877,266.347,244.793,266.347z"/>
<path style="fill:#FFFFFF;" d="M106.263,334.438h163.285c11.559,0,20.93-9.371,20.93-20.93V220.66H85.333v92.848
	C85.333,325.067,94.704,334.438,106.263,334.438z"/>
<path style="fill:#D0D1D3;" d="M187.044,220.66v113.778h82.504c11.559,0,20.93-9.371,20.93-20.93V220.66H187.044z"/>
</svg>