<?xml version="1.0" encoding="iso-8859-1"?>
<!-- Uploaded to: SVG Repo, www.svgrepo.com, Generator: SVG Repo Mixer Tools -->
<svg height="800px" width="800px" version="1.1" id="Layer_1" xmlns="http://www.w3.org/2000/svg" xmlns:xlink="http://www.w3.org/1999/xlink" 
	 viewBox="0 0 480 480" xml:space="preserve">
<g transform="translate(0 -540.36)">
	<g>
		<path style="fill:#22AB92;" d="M19.441,636.591l29.673-1.023l17.395-6.139L235.34,639.66l7.163,203.62l5.116,36.836
			l-174.97,38.882L0,883.186l6.651-29.162L19.441,636.591z"/>
		<path style="fill:#16A085;" d="M72.648,919.254l-4.742-52.2l-1.269-237.882l-18.29,6.267l-8.658,230.167L72.648,919.254z"/>
		<path style="fill:#27C4A7;" d="M67.532,866.814l174.714-25.325l5.116,38.115L72.648,918.743L67.532,866.814z"/>
		<path style="fill:#1ABC9C;" d="M0.512,882.674l39.138-16.883l32.743,52.44L0.512,882.674z"/>
	</g>
	<g>
		<path style="fill:#0C5F4F;" d="M119.077,649.125c0,4.097-3.321,7.418-7.418,7.418c0,0,0,0,0,0c-4.097,0-7.418-3.321-7.418-7.418
			l0,0c0-4.097,3.321-7.418,7.418-7.418c0,0,0,0,0,0C115.756,641.707,119.077,645.028,119.077,649.125L119.077,649.125z"/>
		<path style="fill:#0C5F4F;" d="M199.783,653.218c0,4.168-3.379,7.546-7.546,7.546s-7.546-3.379-7.546-7.546
			c0-4.168,3.379-7.546,7.546-7.546S199.783,649.05,199.783,653.218z"/>
	</g>
	<g shape-rendering="auto" image-rendering="auto" color-rendering="auto" color-interpolation="sRGB">
		<path style="fill:#2A8A78;" d="M112.248,655.91c-0.485,0-0.879,0.393-0.879,0.878c0,0.177,0.053,0.35,0.153,0.496
			c0,0,0.925,1.397,1.964,3.192c1.038,1.795,2.184,4.017,2.593,5.453c0.158,0.556,0.255,1.679,0.282,2.603
			c0.027,0.924,0.005,1.67,0.005,1.67c-0.026,0.484,0.345,0.899,0.829,0.925c0.484,0.026,0.899-0.345,0.925-0.829
			c0.001-0.014,0.001-0.027,0.001-0.041c0,0,0.024-0.795-0.005-1.776c-0.029-0.981-0.092-2.129-0.349-3.032
			c-0.507-1.783-1.695-4.008-2.762-5.852c-1.067-1.845-2.019-3.282-2.019-3.282C112.825,656.063,112.547,655.911,112.248,655.91
			L112.248,655.91z"/>
		<path style="fill:#2A8A78;" d="M112.648,650.604c-0.485,0.011-0.869,0.413-0.858,0.898c0.011,0.46,0.374,0.834,0.834,0.857
			c0,0,0.645,0.042,1.412,0.175c0.767,0.133,1.661,0.424,1.911,0.612c2.366,1.78,4.208,4.808,4.514,7.711
			c0.159,1.504-1.053,3.192-1.805,5.231c-0.505,1.369-1.71,4.178-1.71,4.178c-0.197,0.443,0.002,0.962,0.445,1.16
			c0.443,0.197,0.962-0.002,1.16-0.445c0.003-0.007,0.006-0.014,0.009-0.021c0,0,1.197-2.78,1.744-4.264
			c0.615-1.668,2.16-3.6,1.904-6.025c-0.368-3.486-2.438-6.848-5.205-8.93c-0.793-0.597-1.797-0.787-2.667-0.938
			s-1.601-0.197-1.601-0.197C112.707,650.604,112.677,650.603,112.648,650.604L112.648,650.604z"/>
	</g>
	<path style="fill:#279581;" d="M139.266,701.283c0,16.83-9.718,30.473-21.706,30.473l0,0c-11.988,0-21.706-13.643-21.706-30.473
		l0,0c0-16.83,9.718-30.473,21.706-30.473l0,0C129.548,670.81,139.266,684.453,139.266,701.283L139.266,701.283z"/>
	<g shape-rendering="auto" image-rendering="auto" color-rendering="auto" color-interpolation="sRGB">
		<g>
			<path style="fill:#CDD2D0;" d="M109.83,716.136c-0.309,0.806,0.093,1.71,0.9,2.02c0.806,0.309,1.71-0.093,2.02-0.9
				c0.006-0.015,0.011-0.03,0.017-0.045l11.739-32.059c0.309-0.806-0.093-1.71-0.9-2.02c-0.806-0.309-1.71,0.093-2.02,0.9
				c-0.006,0.015-0.011,0.03-0.017,0.045L109.83,716.136L109.83,716.136z"/>
			<path style="fill:#CDD2D0;" d="M122.544,702.284c-0.424,1.114-0.424,2.376,0.107,3.513c1.088,2.333,3.916,3.355,6.25,2.267
				c0,0,0.001,0,0.001-0.001c0.195-0.091,0.368-0.221,0.51-0.382c1.862-1.231,2.654-3.684,1.662-5.812
				c-1.06-2.274-3.816-3.268-6.09-2.208C123.816,700.205,122.968,701.171,122.544,702.284L122.544,702.284z M125.399,703.358
				c0.132-0.342,0.428-0.641,0.906-0.863c0.795-0.371,1.57-0.089,1.935,0.695c0.439,0.942,0.135,1.669-0.66,2.04
				c-0.954,0.444-1.657,0.188-2.096-0.755C125.301,704.083,125.268,703.699,125.399,703.358L125.399,703.358z"/>
		</g>
		<path style="fill:#F9690E;" d="M122.286,683.031c-0.684-0.024-1.305,0.399-1.531,1.045l-11.738,32.061
			c-0.317,0.803,0.076,1.711,0.879,2.029s1.711-0.076,2.029-0.879c0.01-0.025,0.019-0.05,0.027-0.075l11.738-32.061
			c0.307-0.807-0.097-1.71-0.904-2.018C122.626,683.071,122.457,683.037,122.286,683.031L122.286,683.031z"/>
	</g>
	<path style="fill:#F1F8F5;" d="M138.088,700.643c0,16.83-9.718,30.473-21.706,30.473l0,0c-11.988,0-21.706-13.643-21.706-30.473
		l0,0c0-16.83,9.718-30.473,21.706-30.473h0C128.37,670.171,138.088,683.814,138.088,700.643L138.088,700.643z"/>
	<g shape-rendering="auto" image-rendering="auto" color-rendering="auto" color-interpolation="sRGB">
		<path style="fill:#F9690E;" d="M125.931,699.238c-0.595,0.02-1.193,0.157-1.762,0.422c-2.334,1.088-3.392,3.863-2.332,6.137
			c1.088,2.333,3.916,3.355,6.25,2.268c0.196-0.092,0.371-0.224,0.514-0.387c1.859-1.232,2.652-3.682,1.66-5.809
			C129.466,700.164,127.715,699.177,125.931,699.238z M126.62,702.41c0.339,0.122,0.624,0.388,0.807,0.779
			c0.439,0.942,0.135,1.67-0.66,2.041c-0.954,0.444-1.658,0.189-2.098-0.754c-0.365-0.784-0.132-1.538,0.822-1.982
			C125.889,702.308,126.281,702.288,126.62,702.41z"/>
		<g>
			<g>
				<path style="fill:#F1F8F5;" d="M111.524,655.91c-0.485-0.001-0.879,0.391-0.88,0.876c0,0.178,0.053,0.352,0.154,0.499
					c0,0,0.924,1.396,1.963,3.191c1.038,1.795,2.185,4.017,2.594,5.453c0.158,0.556,0.254,1.677,0.281,2.602
					c0.027,0.924,0.006,1.67,0.006,1.67c-0.021,0.485,0.355,0.894,0.84,0.915s0.894-0.355,0.915-0.84
					c0-0.007,0.001-0.014,0.001-0.021c0,0,0.023-0.794-0.006-1.775c-0.029-0.981-0.091-2.128-0.348-3.031
					c-0.507-1.783-1.695-4.007-2.762-5.852c-1.067-1.845-2.02-3.283-2.02-3.283C112.101,656.063,111.823,655.91,111.524,655.91z"/>
				<path style="fill:#F1F8F5;" d="M111.925,650.603c-0.485,0.008-0.872,0.407-0.865,0.892c0.007,0.465,0.375,0.843,0.839,0.864
					c0,0,0.647,0.043,1.414,0.176c0.767,0.133,1.66,0.423,1.91,0.611c2.366,1.78,4.207,4.809,4.514,7.711
					c0.159,1.504-1.053,3.192-1.805,5.23c-0.505,1.369-1.709,4.178-1.709,4.178c-0.205,0.44-0.016,0.962,0.424,1.168
					c0.439,0.205,0.962,0.016,1.168-0.424c0.008-0.017,0.015-0.034,0.022-0.051c0,0,1.197-2.78,1.744-4.264
					c0.615-1.668,2.16-3.599,1.904-6.023c-0.368-3.486-2.438-6.848-5.205-8.93c-0.793-0.597-1.798-0.786-2.668-0.938
					s-1.6-0.197-1.6-0.197C111.984,650.604,111.954,650.603,111.925,650.603L111.925,650.603z"/>
			</g>
			<path style="fill:#1B8975;" d="M111.964,652.233c-1.67,0.042-3.079,1.253-3.371,2.898c0,0-1.606,8.336-2.375,18.49
				c-0.769,10.154-0.985,22.051,2.89,30.457c4.676,10.144,14.436,17.527,24.477,21.263c12.465,4.637,27.417,5.177,39.927-0.052
				c9.697-4.053,17.924-12.391,21.856-22.134c3.203-7.937,2.829-18.904,2.008-28.249s-2.332-16.979-2.332-16.979
				c-0.344-1.91-2.172-3.179-4.082-2.834c-1.91,0.344-3.179,2.172-2.834,4.082c0.007,0.039,0.015,0.077,0.023,0.116
				c0,0,1.442,7.3,2.226,16.23c0.784,8.929,0.665,19.578-1.526,25.005c-3.153,7.813-10.278,15.034-18.049,18.282
				c-10.463,4.373-23.896,3.993-34.767-0.052c-8.544-3.179-16.921-9.755-20.546-17.619c-2.658-5.766-3-17.275-2.264-26.985
				c0.736-9.709,2.268-17.693,2.268-17.693c0.393-1.9-0.828-3.76-2.729-4.153C112.5,652.25,112.232,652.226,111.964,652.233
				L111.964,652.233z"/>
			<path style="fill:#C7540B;" d="M114.976,699.86l-3.246,8.869c0.693,1.035,1.438,2.035,2.232,2.996l2.926-7.992
				c-0.521-0.848-0.991-1.714-1.398-2.598C115.306,700.738,115.137,700.309,114.976,699.86z"/>
		</g>
	</g>
	<path style="fill:#F7CA18;" d="M439.441,797.453c12.512-0.024,25.924,11.118,22.585,23.972l-22.378,86.15
		c-3.339,12.854-10.073,23.972-22.585,23.972H261.089c-12.512,0-19.339-11.094-22.585-23.972l-21.619-85.772
		c-3.246-12.878,10.073-23.948,22.585-23.972L439.441,797.453L439.441,797.453z M424.729,837.834
		c-3.273-0.028-6.208,2.237-6.916,5.568L404.3,906.978c-0.809,3.808,1.604,7.524,5.412,8.334s7.524-1.605,8.334-5.413l13.513-63.576
		c0.809-3.808-1.604-7.524-5.412-8.334C425.672,837.888,425.197,837.838,424.729,837.834L424.729,837.834z M254.206,837.834
		c-0.468,0.004-0.942,0.054-1.418,0.156c-3.808,0.809-6.221,4.526-5.412,8.334l13.513,63.576c0.809,3.808,4.526,6.222,8.334,5.413
		c3.808-0.809,6.222-4.526,5.413-8.334l-13.513-63.576C260.414,840.071,257.479,837.806,254.206,837.834L254.206,837.834z
		 M378.698,839.346c-3.893,0-7.027,3.134-7.027,7.027v62.068c0,3.893,3.134,7.027,7.027,7.027c3.893,0,7.027-3.134,7.027-7.027
		v-62.068C385.725,842.48,382.591,839.346,378.698,839.346z M339.468,839.346c-3.893,0-7.027,3.134-7.027,7.027v62.068
		c0,3.893,3.134,7.027,7.027,7.027c3.893,0,7.027-3.134,7.027-7.027v-62.068C346.494,842.48,343.36,839.346,339.468,839.346z
		 M300.237,839.346c-3.893,0-7.027,3.134-7.027,7.027v62.068c0,3.893,3.134,7.027,7.027,7.027c3.893,0,7.027-3.134,7.027-7.027
		v-62.068C307.263,842.48,304.129,839.346,300.237,839.346z"/>
	<path style="fill:#D2AE1F;" d="M217.163,822.903l0.928,3.684h242.594l0.957-3.684H217.163z"/>
	<path style="fill:#F39C12;" d="M468.289,790.72H210.646c-6.488,0-11.711,5.223-11.711,11.711v8.761
		c0,6.488,5.223,11.711,11.711,11.711h257.643c6.488,0,11.711-5.223,11.711-11.711v-8.761
		C480,795.943,474.777,790.72,468.289,790.72z"/>
	<path style="fill:#BD801F;" d="M403.567,790.719l11.904,16.357c3.054,4.197,8.894,5.122,13.096,2.074l1.889-1.369
		c4.201-3.047,5.124-8.88,2.07-13.076l-2.9-3.986H403.567z"/>
	<path style="fill:#22AB92;" d="M359.411,727.633l57.816,79.444c3.054,4.197,8.895,5.122,13.097,2.074l1.888-1.369
		c4.201-3.047,5.125-8.879,2.071-13.076l-57.816-79.444c-3.054-4.197-8.895-5.122-13.097-2.074l-1.888,1.369
		C357.281,717.604,356.357,723.436,359.411,727.633z"/>
	<path style="fill:#BD801F;" d="M249.312,790.719l-2.902,3.988c-3.054,4.197-2.131,10.029,2.07,13.076l1.887,1.367
		c4.201,3.047,10.042,2.122,13.096-2.074l11.904-16.357H249.312z"/>
	<path style="fill:#22AB92;" d="M319.515,727.641l-57.809,79.435c-3.054,4.197-8.895,5.122-13.097,2.074l-1.886-1.368
		c-4.201-3.047-5.125-8.879-2.071-13.076l57.809-79.435c3.054-4.197,8.895-5.122,13.097-2.074l1.886,1.368
		C321.645,717.613,322.569,723.445,319.515,727.641z"/>
	<g shape-rendering="auto" image-rendering="auto" color-rendering="auto" color-interpolation="sRGB">
		<path style="fill:#CDD2D0;" d="M103.174,695.575c-0.425,1.162-0.412,2.484,0.146,3.682c1.006,2.157,3.515,3.086,5.779,2.358
			c0.202-0.01,0.399-0.058,0.583-0.143c2.397-1.118,3.484-3.955,2.392-6.296c-1.117-2.396-4.015-3.442-6.412-2.324
			C104.463,693.411,103.599,694.413,103.174,695.575L103.174,695.575z M106.081,696.638c0.147-0.401,0.456-0.744,0.902-0.952
			c0.891-0.416,1.847-0.067,2.257,0.812c0.334,0.716,0.012,1.725-0.88,2.141c-0.892,0.416-1.873,0.013-2.206-0.703
			C105.949,697.496,105.934,697.039,106.081,696.638L106.081,696.638z"/>
		<path style="fill:#C1C6C4;" d="M113.548,670.467c-2.566,0.471-5.051,1.582-7.338,3.281c-0.762,10.126-0.962,21.958,2.896,30.328
			c4.165,9.035,12.366,15.872,21.203,19.9c1.482-1.735,2.792-3.74,3.896-5.961c-7.889-3.393-15.351-9.579-18.717-16.881
			c-2.658-5.766-3.001-17.275-2.266-26.984C113.319,672.887,113.43,671.659,113.548,670.467z"/>
		<path style="fill:#F9690E;" d="M106.704,692.406c-0.626,0.022-1.256,0.166-1.855,0.445c-0.001,0-0.001,0-0.002,0
			c-2.397,1.118-3.457,4.01-2.34,6.406c1.006,2.158,3.514,3.087,5.779,2.357c0.201-0.01,0.398-0.058,0.58-0.143
			c0.001,0,0.001,0,0.002,0c2.397-1.118,3.482-3.956,2.391-6.297C110.421,693.378,108.583,692.341,106.704,692.406z
			 M107.478,695.605c0.401,0.145,0.742,0.453,0.947,0.893c0.334,0.716,0.012,1.725-0.879,2.141
			c-0.891,0.416-1.871,0.013-2.205-0.703c-0.41-0.879-0.063-1.834,0.828-2.25C106.615,695.478,107.076,695.46,107.478,695.605z"/>
		<path style="fill:#F7CA18;" d="M111.964,650.424c-1.67,0.042-3.079,1.254-3.371,2.898c0,0-1.606,8.336-2.375,18.49
			s-0.986,22.052,2.889,30.457c4.676,10.144,14.436,17.526,24.477,21.262c12.465,4.637,27.418,5.178,39.928-0.051
			c9.697-4.053,17.923-12.391,21.855-22.135c3.203-7.937,2.83-18.905,2.01-28.25c-0.82-9.345-2.332-16.979-2.332-16.979
			c-0.341-1.91-2.166-3.183-4.076-2.841c-1.91,0.341-3.183,2.166-2.842,4.076c0.008,0.043,0.016,0.086,0.025,0.128
			c0,0,1.441,7.301,2.225,16.23s0.665,19.577-1.525,25.004c-3.153,7.813-10.278,15.035-18.049,18.283
			c-10.463,4.373-23.897,3.992-34.768-0.053c-8.544-3.179-16.92-9.755-20.545-17.619c-2.658-5.766-3.001-17.273-2.266-26.982
			s2.27-17.695,2.27-17.695c0.393-1.9-0.828-3.76-2.729-4.153C112.501,650.441,112.233,650.417,111.964,650.424L111.964,650.424z"/>
	</g>
</g>
</svg>