<?xml version="1.0" encoding="iso-8859-1"?>
<!-- Uploaded to: SVG Repo, www.svgrepo.com, Generator: SVG Repo Mixer Tools -->
<svg height="800px" width="800px" version="1.1" id="Layer_1" xmlns="http://www.w3.org/2000/svg" xmlns:xlink="http://www.w3.org/1999/xlink" 
	 viewBox="0 0 480 480" xml:space="preserve">
<g transform="translate(0 -540.36)">
	<path style="fill:#FFE3A7;" d="M287.928,540.36l-91.794,0.139c-12.421,0.019-15.07,13.403-22.42,25.198
		c-18.596,29.84-55.787,89.519-55.787,89.519c-1.712,4.126-1.456,12.01-1.456,12.01l0.87,323.289
		c0.044,16.534,13.215,29.845,29.632,29.845h155.019l61.465-61.465l-0.785-291.668c0,0,0.168-8.436-1.389-11.612
		c0,0-33.957-60.038-50.935-90.057C303.507,553.462,300.349,540.341,287.928,540.36L287.928,540.36z M239.957,600.203
		c15.297,0,27.698,12.401,27.698,27.698s-12.401,27.698-27.698,27.698l0,0c-15.297,0-27.698-12.401-27.698-27.698l0,0
		C212.26,612.604,224.661,600.203,239.957,600.203L239.957,600.203L239.957,600.203z"/>
	<g shape-rendering="auto" image-rendering="auto" color-rendering="auto" color-interpolation="sRGB">
		<path style="fill:#D4A579;" d="M281.087,566.647c3.478,0.005,6.053,2.07,8.056,4.727l3.853-2.907
			c-2.773-3.944-6.885-6.476-11.744-6.643L281.087,566.647z"/>
		<path style="fill:#D4A579;" d="M257.404,561.85l0.009,4.825l11.881-0.019l-0.009-4.825L257.404,561.85z"/>
		<path style="fill:#D4A579;" d="M233.644,561.889l0.009,4.825l11.881-0.019l-0.009-4.825L233.644,561.889z"/>
		<path style="fill:#D4A579;" d="M209.883,561.927l0.009,4.825l11.88-0.019l-0.007-4.825L209.883,561.927z"/>
		<path style="fill:#D4A579;" d="M190.738,568.517l3.897,2.844c1.932-2.854,4.634-4.466,8.068-4.597l-0.184-4.822
			C197.24,562.599,193.537,565.038,190.738,568.517L190.738,568.517z"/>
		<path style="fill:#D4A579;" d="M179.383,589.646l4.171,2.426l5.712-10.64l-4.359-2.07L179.383,589.646z"/>
		<path style="fill:#D4A579;" d="M294.463,581.399l5.356,10.742l4.268-2.253l-5.243-10.516L294.463,581.399z"/>
		<path style="fill:#D4A579;" d="M167.44,610.186l4.171,2.426l5.972-10.27l-4.171-2.426L167.44,610.186z"/>
		<path style="fill:#D4A579;" d="M305.364,602.648l5.546,10.507l4.268-2.253l-5.546-10.507L305.364,602.648z"/>
		<path style="fill:#D4A579;" d="M155.495,630.726l4.171,2.426l5.972-10.27l-4.171-2.426L155.495,630.726z"/>
		<path style="fill:#D4A579;" d="M316.454,623.661l5.546,10.506l4.268-2.252l-5.545-10.507L316.454,623.661z"/>
		<path style="fill:#D4A579;" d="M143.551,651.266l4.171,2.426l5.972-10.27l-4.171-2.426L143.551,651.266z"/>
		<path style="fill:#D4A579;" d="M327.545,644.674l5.546,10.507l4.268-2.252l-5.546-10.507L327.545,644.674z"/>
		<path style="fill:#D4A579;" d="M132.614,673.222l4.789,0.589c0.185-3.793,2.471-6.625,4.346-9.849l-4.171-2.426
			C134.736,665.372,133.168,668.745,132.614,673.222L132.614,673.222z"/>
		<path style="fill:#D4A579;" d="M338.636,665.687c2.375,3.475,3.108,6.193,3.406,10.169l4.812-0.359
			c0.013-4.735-1.752-7.894-3.952-12.061L338.636,665.687z"/>
		<path style="fill:#D4A579;" d="M132.312,685.392l0.03,11.88l4.825-0.012l-0.03-11.88L132.312,685.392z"/>
		<path style="fill:#D4A579;" d="M342.164,687.561l0.03,11.881l4.825-0.013l-0.03-11.88L342.164,687.561z"/>
		<path style="fill:#D4A579;" d="M132.372,709.152l0.029,11.88l4.825-0.012l-0.029-11.88L132.372,709.152z"/>
		<path style="fill:#D4A579;" d="M342.223,711.321l0.03,11.881l4.825-0.013l-0.03-11.88L342.223,711.321z"/>
		<path style="fill:#D4A579;" d="M132.431,732.913l0.03,11.88l4.825-0.012l-0.03-11.881L132.431,732.913z"/>
		<path style="fill:#D4A579;" d="M342.283,735.082l0.03,11.881l4.825-0.013l-0.03-11.88L342.283,735.082z"/>
		<path style="fill:#D4A579;" d="M132.491,756.673l0.03,11.88l4.825-0.012l-0.03-11.881L132.491,756.673z"/>
		<path style="fill:#D4A579;" d="M342.344,758.842l0.03,11.88l4.825-0.012l-0.03-11.88L342.344,758.842z"/>
		<path style="fill:#D4A579;" d="M132.551,780.434l0.029,11.88l4.825-0.012l-0.029-11.881L132.551,780.434z"/>
		<path style="fill:#D4A579;" d="M342.402,782.603l0.03,11.88l4.825-0.012l-0.03-11.88L342.402,782.603z"/>
		<path style="fill:#D4A579;" d="M132.61,804.195l0.03,11.88l4.825-0.012l-0.03-11.881L132.61,804.195z"/>
		<path style="fill:#D4A579;" d="M342.462,806.363l0.03,11.88l4.825-0.012l-0.03-11.88L342.462,806.363z"/>
		<path style="fill:#D4A579;" d="M132.67,827.954l0.03,11.881l4.825-0.012l-0.03-11.881L132.67,827.954z"/>
		<path style="fill:#D4A579;" d="M342.523,830.124l0.03,11.88l4.825-0.012l-0.03-11.88L342.523,830.124z"/>
		<path style="fill:#D4A579;" d="M132.73,851.714l0.029,11.881l4.825-0.012l-0.029-11.881L132.73,851.714z"/>
		<path style="fill:#D4A579;" d="M342.582,853.884l0.03,11.88l4.825-0.012l-0.03-11.88L342.582,853.884z"/>
		<path style="fill:#D4A579;" d="M132.789,875.475l0.03,11.881l4.825-0.012l-0.03-11.881L132.789,875.475z"/>
		<path style="fill:#D4A579;" d="M342.642,877.645l0.03,11.88l4.825-0.012l-0.03-11.88L342.642,877.645z"/>
		<path style="fill:#D4A579;" d="M132.849,899.235l0.03,11.881l4.825-0.012l-0.03-11.881L132.849,899.235z"/>
		<path style="fill:#D4A579;" d="M342.702,901.405l0.029,11.88l4.825-0.012l-0.029-11.88L342.702,901.405z"/>
		<path style="fill:#D4A579;" d="M132.909,922.996l0.029,11.881l4.825-0.012l-0.029-11.881L132.909,922.996z"/>
		<path style="fill:#D4A579;" d="M342.761,925.166l0.03,11.88l4.825-0.012l-0.03-11.88L342.761,925.166z"/>
		<path style="fill:#D4A579;" d="M132.968,946.757l0.03,11.881l4.825-0.012l-0.03-11.881L132.968,946.757z"/>
		<path style="fill:#D4A579;" d="M342.821,948.926l0.03,11.88l4.825-0.012l-0.03-11.88L342.821,948.926z"/>
		<path style="fill:#D4A579;" d="M133.028,970.517c0.009,4.737-0.018,8.173,0.929,12.424l4.664-1.227l0,0l-0.015-0.058
			c-0.908-3.652-0.742-7.421-0.752-11.15L133.028,970.517z"/>
		<path style="fill:#D4A579;" d="M139.506,994.465c2.649,3.436,6.087,6.164,9.979,8.06l2.113-4.339
			c-3.297-1.524-6.071-3.921-8.329-6.739L139.506,994.465z"/>
		<path style="fill:#D4A579;" d="M162.081,1005.062h11.881v-4.826h-11.881V1005.062z"/>
		<path style="fill:#D4A579;" d="M185.841,1005.062h11.881v-4.826h-11.881V1005.062z"/>
		<path style="fill:#D4A579;" d="M209.602,1005.062h11.881v-4.826h-11.881V1005.062z"/>
		<path style="fill:#D4A579;" d="M233.362,1005.062h11.881v-4.826h-11.881L233.362,1005.062z"/>
		<path style="fill:#D4A579;" d="M257.124,1005.062h11.88v-4.826h-11.88V1005.062z"/>
		<path style="fill:#D4A579;" d="M280.885,1005.062h11.88v-4.826h-11.88V1005.062z"/>
		<path style="fill:#D4A579;" d="M304.645,1005.062h11.88v-4.826h-11.88V1005.062z"/>
	</g>
	<g>
		<path style="fill:#FFE3A7;" d="M301.992,1020.36v-61.55h61.55L301.992,1020.36"/>
		<path style="fill:#E6CE99;" d="M301.992,1020.36v-61.55h61.55L301.992,1020.36"/>
	</g>
	<g>
		<path style="fill:#D4A579;" d="M161.184,807.701h6.992v119.866h-6.992V807.701z"/>
		<path style="fill:#D4A579;" d="M172.126,807.701h17.73v119.866h-17.73V807.701z"/>
		<path style="fill:#D4A579;" d="M193.389,807.701h9.24v119.866h-9.24V807.701z"/>
		<path style="fill:#D4A579;" d="M206.169,807.701h9.24v119.866h-9.24V807.701z"/>
		<path style="fill:#D4A579;" d="M219.648,807.701h17.73v119.866h-17.73V807.701z"/>
		<path style="fill:#D4A579;" d="M241.675,807.701h15.483v119.866h-15.483V807.701z"/>
		<path style="fill:#D4A579;" d="M270.632,807.701h30.716v119.866h-30.716V807.701z"/>
		<path style="fill:#D4A579;" d="M260.885,807.701h6.992v119.866h-6.992V807.701z"/>
		<path style="fill:#D4A579;" d="M304.967,807.701h13.764v119.866h-13.764V807.701z"/>
	</g>
	<g shape-rendering="auto" image-rendering="auto" color-rendering="auto" color-interpolation="sRGB">
		<g>
			<path style="fill:#D8C292;" d="M268.716,705.506c-1.775-0.799-3.864-0.35-5.154,1.109l-51.9,57.059
				c-1.683,1.786-1.6,4.599,0.187,6.282c1.786,1.683,4.599,1.6,6.282-0.187c0.036-0.038,0.071-0.077,0.106-0.116l51.9-57.059
				c1.677-1.792,1.583-4.604-0.21-6.281C269.57,705.979,269.161,705.707,268.716,705.506L268.716,705.506z"/>
			<path style="fill:#D8C292;" d="M223.586,710.002c-1.439-0.531-3-0.786-4.613-0.707c-6.451,0.318-11.544,5.904-11.227,12.357
				c0,0.001,0.001,0.001,0.001,0.002c0.299,6.076,5.456,10.76,11.549,10.882c0.273,0.039,0.548,0.053,0.824,0.042c0,0,0,0,0,0.001
				c6.451-0.318,11.551-5.736,11.238-12.087C231.12,715.651,227.902,711.594,223.586,710.002L223.586,710.002z M220.611,718.325
				c1.089,0.365,1.81,1.327,1.873,2.603c0.062,1.257-1.062,2.682-2.792,2.772c-0.003,0-0.006,0.001-0.009,0.001
				c-1.736,0.086-2.998-1.225-3.06-2.485c-0.084-1.701,1.053-2.96,2.789-3.046C219.845,718.149,220.248,718.203,220.611,718.325
				L220.611,718.325z"/>
			<path style="fill:#D8C292;" d="M266.78,744.281c-1.372-0.507-2.858-0.753-4.392-0.677c-6.255,0.308-11.282,5.663-10.979,11.802
				c0.309,6.256,5.844,11.246,12.098,10.94c0.31-0.016,0.617-0.064,0.917-0.144c5.689-0.781,10.071-5.984,9.779-11.92
				C273.974,749.677,270.894,745.803,266.78,744.281L266.78,744.281z M263.84,752.592c0.898,0.275,1.431,1.024,1.486,2.128
				c0.094,1.899-0.75,2.674-2.255,2.749c-1.931,0.095-2.693-0.6-2.787-2.5c-0.073-1.472,0.61-2.394,2.542-2.489
				C263.201,752.46,263.541,752.5,263.84,752.592L263.84,752.592z"/>
		</g>
		<g>
			<path style="fill:#D4A579;" d="M267.7,704.067c-1.775-0.799-3.864-0.35-5.154,1.109l-51.9,57.059
				c-1.683,1.786-1.6,4.599,0.187,6.282c1.786,1.683,4.599,1.6,6.282-0.187c0.036-0.038,0.071-0.077,0.106-0.116l51.9-57.059
				c1.677-1.792,1.583-4.604-0.21-6.281C268.554,704.54,268.145,704.267,267.7,704.067L267.7,704.067z"/>
			<path style="fill:#D4A579;" d="M222.57,708.562c-1.439-0.531-3-0.786-4.613-0.707c-6.451,0.318-11.544,5.904-11.227,12.357
				c0,0.001,0.001,0.001,0.001,0.002c0.299,6.076,5.456,10.76,11.549,10.882c0.273,0.039,0.548,0.053,0.824,0.042c0,0,0,0,0,0.001
				c6.451-0.318,11.551-5.736,11.238-12.087C230.104,714.211,226.885,710.154,222.57,708.562L222.57,708.562z M219.595,716.885
				c1.089,0.365,1.81,1.327,1.873,2.603c0.062,1.257-1.062,2.682-2.792,2.772c-0.003,0-0.006,0-0.009,0.001
				c-1.736,0.086-2.998-1.225-3.06-2.485c-0.084-1.701,1.053-2.96,2.789-3.046C218.829,716.709,219.232,716.764,219.595,716.885
				L219.595,716.885z"/>
			<path style="fill:#D4A579;" d="M265.763,742.842c-1.372-0.507-2.858-0.753-4.392-0.677c-6.255,0.308-11.282,5.663-10.979,11.802
				c0.309,6.255,5.844,11.246,12.098,10.94c0.31-0.016,0.617-0.064,0.917-0.144c5.689-0.781,10.071-5.984,9.779-11.92
				C272.958,748.238,269.878,744.364,265.763,742.842L265.763,742.842z M262.824,751.152c0.898,0.275,1.431,1.024,1.486,2.128
				c0.094,1.899-0.75,2.674-2.255,2.749c-1.931,0.095-2.693-0.6-2.787-2.5c-0.073-1.472,0.61-2.394,2.542-2.489
				C262.184,751.021,262.524,751.061,262.824,751.152L262.824,751.152z"/>
		</g>
	</g>
</g>
</svg>