<?xml version="1.0" encoding="iso-8859-1"?>
<!-- Uploaded to: SVG Repo, www.svgrepo.com, Generator: SVG Repo Mixer Tools -->
<svg version="1.1" id="Layer_1" xmlns="http://www.w3.org/2000/svg" xmlns:xlink="http://www.w3.org/1999/xlink" 
	 viewBox="0 0 509.1 509.1" xml:space="preserve">
<circle style="fill:#FBD303;" cx="254.5" cy="254.55" r="254.5"/>
<g>
	<rect x="71.1" y="303.05" style="fill:#4F5565;" width="54.3" height="30.7"/>
	<path style="fill:#4F5565;" d="M504.3,303.05H311.1v30.7h185.3C499.6,323.75,502.3,313.55,504.3,303.05z"/>
	<path style="fill:#4F5565;" d="M87.2,227.65c66.7-41.8,100.7-40,100.7-40h192.4c-18.8-8-51.1-19.6-81.1-19.6c-46,0-104.1,0-104.1,0
		s-52.8,0.8-108.6,43.8s-75.4,75.1-68,93.6l0,0C18.1,287.15,34.2,260.95,87.2,227.65z"/>
</g>
<rect x="169.5" y="293.95" style="fill:#646B79;" width="94.3" height="28.4"/>
<g>
	<polygon style="fill:#333842;" points="194.2,313.65 185.4,304.45 175.2,304.45 179.3,313.65 	"/>
	<rect x="194.2" y="306.15" style="fill:#333842;" width="11.9" height="2.9"/>
	<polygon style="fill:#333842;" points="245,318.15 239.2,320.95 235.3,315.85 216.7,315.85 198.1,315.85 194.2,320.95 
		188.3,318.15 179.3,318.15 175.2,327.75 186.6,327.75 194.2,331.95 200.3,328.55 216.7,328.55 233.1,328.55 239.2,331.95 
		246.7,327.75 258.2,327.75 254.1,318.15 	"/>
	<polygon style="fill:#333842;" points="254.1,313.65 258.2,304.45 247.9,304.45 239.2,313.65 	"/>
	<rect x="227.2" y="306.15" style="fill:#333842;" width="11.9" height="2.9"/>
	<polygon style="fill:#333842;" points="219.5,298.75 219.5,301.85 216.7,301.85 213.8,301.85 213.8,298.75 172,298.75 172,302.95 
		211.8,302.95 211.8,309.05 216.7,309.05 221.5,309.05 221.5,302.95 261.4,302.95 261.4,298.75 	"/>
</g>
<circle style="fill:#646B79;" cx="157.5" cy="315.85" r="25.1"/>
<circle style="fill:#4F5565;" cx="157.5" cy="315.85" r="21.3"/>
<circle style="fill:#393D47;" cx="157.5" cy="315.85" r="8"/>
<g>
	<path style="fill:#333842;" d="M145.7,311.75c1.3-3.6,4.1-6.5,7.7-7.7c1.1-0.4,1.9-1.4,1.9-2.5v-0.2c0-1.8-1.8-3.1-3.5-2.5
		c-5.3,1.8-9.6,6-11.4,11.4c-0.6,1.7,0.7,3.5,2.5,3.5h0.2C144.3,313.65,145.3,312.85,145.7,311.75z"/>
	<path style="fill:#333842;" d="M161.6,304.05c3.6,1.3,6.5,4.1,7.7,7.7c0.4,1.1,1.4,1.9,2.5,1.9h0.2c1.8,0,3.1-1.8,2.5-3.5
		c-1.8-5.3-6-9.6-11.4-11.4c-1.7-0.6-3.5,0.7-3.5,2.5v0.2C159.8,302.65,160.5,303.65,161.6,304.05z"/>
	<path style="fill:#333842;" d="M153.4,327.75c-3.6-1.3-6.5-4.1-7.7-7.7c-0.4-1.1-1.4-1.9-2.5-1.9H143c-1.8,0-3.1,1.8-2.5,3.5
		c1.8,5.3,6,9.6,11.4,11.4c1.7,0.6,3.5-0.7,3.5-2.5v-0.2C155.3,329.15,154.5,328.15,153.4,327.75z"/>
	<path style="fill:#333842;" d="M169.4,320.05c-1.3,3.6-4.1,6.5-7.7,7.7c-1.1,0.4-1.9,1.4-1.9,2.5v0.2c0,1.8,1.8,3.1,3.5,2.5
		c5.3-1.8,9.6-6,11.4-11.4c0.6-1.7-0.7-3.5-2.5-3.5H172C170.7,318.15,169.8,318.95,169.4,320.05z"/>
</g>
<circle style="fill:#646B79;" cx="275.8" cy="315.85" r="25.1"/>
<circle style="fill:#4F5565;" cx="275.8" cy="315.85" r="21.3"/>
<circle style="fill:#393D47;" cx="275.8" cy="315.85" r="8"/>
<g>
	<path style="fill:#333842;" d="M264,311.75c1.3-3.6,4.1-6.5,7.7-7.7c1.1-0.4,1.9-1.4,1.9-2.5v-0.2c0-1.8-1.8-3.1-3.5-2.5
		c-5.3,1.8-9.6,6-11.4,11.4c-0.6,1.7,0.7,3.5,2.5,3.5h0.2C262.6,313.65,263.6,312.85,264,311.75z"/>
	<path style="fill:#333842;" d="M279.9,304.05c3.6,1.3,6.5,4.1,7.7,7.7c0.4,1.1,1.4,1.9,2.5,1.9h0.2c1.8,0,3.1-1.8,2.5-3.5
		c-1.8-5.3-6-9.6-11.4-11.4c-1.7-0.6-3.5,0.7-3.5,2.5v0.2C278.1,302.65,278.8,303.65,279.9,304.05z"/>
	<path style="fill:#333842;" d="M271.7,327.75c-3.6-1.3-6.5-4.1-7.7-7.7c-0.4-1.1-1.4-1.9-2.5-1.9h-0.2c-1.8,0-3.1,1.8-2.5,3.5
		c1.8,5.3,6,9.6,11.4,11.4c1.7,0.6,3.5-0.7,3.5-2.5v-0.2C273.6,329.15,272.8,328.15,271.7,327.75z"/>
	<path style="fill:#333842;" d="M287.7,320.05c-1.3,3.6-4.1,6.5-7.7,7.7c-1.1,0.4-1.9,1.4-1.9,2.5v0.2c0,1.8,1.8,3.1,3.5,2.5
		c5.3-1.8,9.6-6,11.4-11.4c0.6-1.7-0.7-3.5-2.5-3.5h-0.2C289,318.15,288.1,318.95,287.7,320.05z"/>
</g>
<path style="fill:#4485C5;" d="M63,231.05l11.4,8.6l59.9-33.3l-18.7-13.7c-9.5,5.2-19.4,11.5-29.3,19.2
	C77.8,218.45,70,224.85,63,231.05z"/>
<path style="fill:#F1F3F7;" d="M87.2,227.65c-75,47-76.2,80-61.3,96.2h62l44.5-17.4h371.3c3.5-16.7,5.3-34.1,5.3-51.9
	c0-23.2-3.2-45.6-8.9-66.9H187.9C187.9,187.65,153.9,185.85,87.2,227.65z"/>
<g>
	<path style="fill:#646B79;" d="M337.1,261.05h91.7v-41.3c-28.8,0-60.8,0-91.7,0L337.1,261.05L337.1,261.05z"/>
	<path style="fill:#646B79;" d="M437.3,261.05h71.6c0.1-2.2,0.2-4.3,0.2-6.5c0-11.8-0.9-23.4-2.4-34.8c-17.1,0-41.5,0-69.3,0v41.3
		H437.3z"/>
	<path style="fill:#646B79;" d="M328.6,219.75c-45.2,0-87.5,0-113.7,0c-51.6,0-91.8,20-114.4,34.6c-5.5,3.6-2.4,12.1,4.1,11.3
		c44-5,106.4-4.6,106.4-4.6h117.7v-41.3H328.6z"/>
</g>
<path style="fill:#BDBDBE;" d="M132.4,306.45H41.5c0,0-1.7,17.4,46.3,17.4L132.4,306.45z"/>
<path style="fill:#F0582F;" d="M500.1,187.65c-1.8-6.6-3.8-13.2-6.2-19.6h-37.8c0,0-34.3,6.3-48.4,19.6H500.1z"/>
</svg>