<?xml version="1.0" encoding="iso-8859-1"?>
<!-- Uploaded to: SVG Repo, www.svgrepo.com, Generator: SVG Repo Mixer Tools -->
<svg version="1.1" id="Layer_1" xmlns="http://www.w3.org/2000/svg" xmlns:xlink="http://www.w3.org/1999/xlink" 
	 viewBox="0 0 512 512" xml:space="preserve">
<circle style="fill:#386895;" cx="256" cy="256" r="256"/>
<path style="fill:#273B7A;" d="M512,256c0-1.16-0.029-2.313-0.043-3.468L385.171,125.745l-242.714,45.442l-16.036-16.036
	l-41.088,43.96l94.784,94.784l-88.523,28.272l55.729,55.729L96.751,408.1l96.023,96.023C212.997,509.261,234.179,512,256,512
	C397.384,512,512,397.384,512,256z"/>
<path style="fill:#FFEDB5;" d="M193.434,286.17c-3.489,0-6.656,1.35-9.037,3.539c0.076-1.171,0.129-2.348,0.129-3.539H77.65
	c0,29.513,23.926,53.439,53.439,53.439c22.949,0,42.513-14.469,50.085-34.78c2.051,4.741,6.768,8.059,12.262,8.059
	c7.378,0,13.36-5.982,13.36-13.36C206.795,292.15,200.813,286.17,193.434,286.17z M193.434,306.816
	c-4.025,0-7.287-3.263-7.287-7.287c0-4.025,3.263-7.287,7.287-7.287c4.025,0,7.287,3.262,7.287,7.287
	C200.723,303.554,197.46,306.816,193.434,306.816z"/>
<path style="fill:#FEE187;" d="M193.434,286.168c-3.489,0-6.656,1.348-9.037,3.539c0.078-1.171,0.129-2.348,0.129-3.539h-53.796
	v53.431c0.121,0,0.238,0.009,0.359,0.009c22.949,0,42.513-14.469,50.085-34.78c2.051,4.741,6.768,8.059,12.262,8.059
	c7.378,0,13.36-5.982,13.36-13.36C206.796,292.149,200.813,286.168,193.434,286.168z M193.434,306.816
	c-4.024,0-7.287-3.263-7.287-7.287c0-4.025,3.263-7.287,7.287-7.287c4.025,0,7.287,3.262,7.287,7.287
	C200.723,303.554,197.46,306.816,193.434,306.816z"/>
<rect x="128" y="219.367" style="fill:#D35933;" width="28.444" height="28.444"/>
<rect x="113.778" y="170.667" style="fill:#E09112;" width="56.889" height="56.889"/>
<path style="fill:#D35933;" d="M85.333,164.778v34.333h183.739c8.488,0,15.372,6.882,15.372,15.37v111.48
	c0,8.488-6.882,15.372-15.372,15.372H85.333v34.766c0,27.927,22.64,50.567,50.569,50.567h219.653
	c23.564,0,42.667-19.103,42.667-42.667V156.444c0-23.564-19.103-42.667-42.667-42.667H136.333
	C108.166,113.778,85.333,136.611,85.333,164.778z"/>
<path style="fill:#B54324;" d="M355.556,113.778h-100.13v85.333h13.648c8.488,0,15.372,6.882,15.372,15.372v111.48
	c0,8.488-6.882,15.372-15.372,15.372h-13.648v85.333h100.13c23.564,0,42.667-19.103,42.667-42.667V156.446
	C398.222,132.88,379.12,113.778,355.556,113.778z"/>
<g>
	<circle style="fill:#FEE187;" cx="362.882" cy="354.263" r="11.205"/>
	<circle style="fill:#FEE187;" cx="318.061" cy="354.263" r="11.205"/>
</g>
<g>
	<rect x="312.889" y="280.135" style="fill:#FFC61B;" width="56.889" height="8.62"/>
	<rect x="312.889" y="251.69" style="fill:#FFC61B;" width="56.889" height="8.62"/>
	<rect x="312.889" y="223.246" style="fill:#FFC61B;" width="56.889" height="8.62"/>
</g>
</svg>