<?xml version="1.0" encoding="iso-8859-1"?>
<!-- Uploaded to: SVG Repo, www.svgrepo.com, Generator: SVG Repo Mixer Tools -->
<!DOCTYPE svg PUBLIC "-//W3C//DTD SVG 1.1//EN" "http://www.w3.org/Graphics/SVG/1.1/DTD/svg11.dtd">
<svg height="800px" width="800px" version="1.1" id="Capa_1" xmlns="http://www.w3.org/2000/svg" xmlns:xlink="http://www.w3.org/1999/xlink" 
	 viewBox="0 0 110.19 110.19" xml:space="preserve">
<g>
	<path style="fill-rule:evenodd;clip-rule:evenodd;fill:#FF690F;" d="M66.288,11.157c5.222,4.669,8.053,9.264,6.948,15.053
		c-1.104,5.789,0.133,10.009,6.723,12.814c6.59,2.806,4.448,3.764,3.793,10.373c-0.408,4.114,3.389,7.366,7.889,6.822
		c0.851-0.104-4.89-1.453-4.654-5.621c0.379-6.711,5.931-11.083-0.553-16.624c-6.483-5.542-7.09-7.37-5.871-11.483
		c1.219-4.112-2.014-10.13-8.593-15.697C64.006,0.055,61.066,6.488,66.288,11.157z"/>
	<path style="fill-rule:evenodd;clip-rule:evenodd;fill:#FF690F;" d="M40.092,36.124c-4.847,5.058-7.342,9.501-5.795,15.188
		c1.547,5.686,0.64,9.989-5.713,13.294c-6.354,3.306-4.145,4.096-2.981,10.636c0.724,4.07-2.811,7.605-7.34,7.409
		c-0.856-0.037,4.764-1.825,4.207-5.963c-0.896-6.661-6.767-10.593-0.731-16.617c6.037-6.025,4.067-6.991,2.535-10.998
		c-1.533-4.007,3.56-11.238,9.789-17.217C72.123-4.666,44.939,31.067,40.092,36.124z"/>
	<path style="fill-rule:evenodd;clip-rule:evenodd;fill:#FF690F;" d="M43.223,11.157c-5.222,4.669-8.053,9.264-6.949,15.053
		c1.104,5.789-0.132,10.009-6.722,12.814c-6.59,2.806-4.448,3.764-3.793,10.373c0.408,4.114-3.389,7.366-7.889,6.822
		c-0.851-0.104,4.89-1.453,4.654-5.621c-0.379-6.711-5.931-11.083,0.553-16.624c6.483-5.542,7.09-7.37,5.871-11.483
		c-1.219-4.112,2.014-10.13,8.593-15.697C45.506,0.055,48.445,6.488,43.223,11.157z"/>
	<path style="fill-rule:evenodd;clip-rule:evenodd;fill:#FF690F;" d="M70.985,34.9c4.631,5.256,6.938,9.8,5.155,15.417
		c-1.783,5.617-1.057,9.954,5.153,13.521c6.21,3.568,3.97,4.266,2.534,10.751c-0.893,4.036,2.491,7.716,7.023,7.71
		c0.857-0.002-4.682-2.023-3.953-6.134c1.172-6.618,7.204-10.301,1.424-16.572c-5.779-6.272-3.772-7.155-2.073-11.095
		c1.698-3.938-3.087-11.377-9.062-17.61C40.685-7.192,66.354,29.645,70.985,34.9z"/>
	<path style="fill-rule:evenodd;clip-rule:evenodd;fill:#FF690F;" d="M43.132,3.028c3.979-3.694,25.293-6.536,33.818,7.389
		c8.525,13.926,3.979,10.515,8.811,19.325c4.831,8.81,4.831,9.946,0.283,16.198c-4.547,6.252-9.377,11.084-5.398,15.347
		c3.978,4.263,5.684,6.536,1.705,12.504c-3.979,5.968,9.662,12.788,4.262,20.178c-5.398,7.389-53.711,9.662-56.837,1.137
		c-3.126-8.525,1.989-14.494-1.137-18.757c-3.126-4.263-7.957-8.525,0-14.493c4.613-3.46-2.057-6.73-5.276-12.72
		c-3.653-6.799-1.346-15.347,0.445-17.973C28.07,24.91,27.218,1.322,43.132,3.028z"/>
	<path style="fill-rule:evenodd;clip-rule:evenodd;fill:#FFD16E;" d="M64.764,69.744c-0.198,0.313-19.746,0.624-19.962,0.933
		c-6.139,8.759-19.404,12.595-29.951,14.953C4.354,87.978,3.949,101.31,3.932,110.19h102.325c-0.016-8.88-0.211-22.165-10.919-24.56
		C84.63,83.236,70.588,78.902,64.764,69.744z"/>
	<g>
		<g>
			<circle style="fill-rule:evenodd;clip-rule:evenodd;fill:#FFFFFF;" cx="10.714" cy="106.423" r="1.934"/>
			<circle style="fill-rule:evenodd;clip-rule:evenodd;fill:#FFFFFF;" cx="22.509" cy="106.423" r="1.934"/>
			<circle style="fill-rule:evenodd;clip-rule:evenodd;fill:#FFFFFF;" cx="34.306" cy="106.423" r="1.934"/>
			<circle style="fill-rule:evenodd;clip-rule:evenodd;fill:#FFFFFF;" cx="46.102" cy="106.423" r="1.934"/>
			<circle style="fill-rule:evenodd;clip-rule:evenodd;fill:#FFFFFF;" cx="57.899" cy="106.423" r="1.934"/>
			<circle style="fill-rule:evenodd;clip-rule:evenodd;fill:#FFFFFF;" cx="69.695" cy="106.423" r="1.934"/>
			<circle style="fill-rule:evenodd;clip-rule:evenodd;fill:#FFFFFF;" cx="81.492" cy="106.423" r="1.934"/>
			<circle style="fill-rule:evenodd;clip-rule:evenodd;fill:#FFFFFF;" cx="93.288" cy="106.423" r="1.934"/>
			<path style="fill-rule:evenodd;clip-rule:evenodd;fill:#FFFFFF;" d="M105.085,104.488c0.398,0,0.769,0.121,1.076,0.327
				c0.048,1.076,0.071,2.133,0.084,3.154c-0.323,0.243-0.726,0.387-1.16,0.387c-1.068,0-1.935-0.866-1.935-1.935
				C103.15,105.355,104.016,104.488,105.085,104.488z"/>
		</g>
		<g>
			<path style="fill-rule:evenodd;clip-rule:evenodd;fill:#FFFFFF;" d="M5.105,97.14c1.068,0,1.934,0.866,1.934,1.935
				c0,1.067-0.865,1.934-1.934,1.934c-0.257,0-0.502-0.051-0.727-0.142c0.154-1.259,0.361-2.51,0.642-3.725L5.105,97.14z"/>
			<circle style="fill-rule:evenodd;clip-rule:evenodd;fill:#FFFFFF;" cx="16.902" cy="99.074" r="1.934"/>
			<circle style="fill-rule:evenodd;clip-rule:evenodd;fill:#FFFFFF;" cx="28.698" cy="99.074" r="1.934"/>
			<circle style="fill-rule:evenodd;clip-rule:evenodd;fill:#FFFFFF;" cx="40.494" cy="99.074" r="1.934"/>
			<circle style="fill-rule:evenodd;clip-rule:evenodd;fill:#FFFFFF;" cx="52.291" cy="99.074" r="1.934"/>
			<circle style="fill-rule:evenodd;clip-rule:evenodd;fill:#FFFFFF;" cx="64.088" cy="99.074" r="1.934"/>
			<circle style="fill-rule:evenodd;clip-rule:evenodd;fill:#FFFFFF;" cx="75.883" cy="99.074" r="1.934"/>
			<circle style="fill-rule:evenodd;clip-rule:evenodd;fill:#FFFFFF;" cx="87.679" cy="99.074" r="1.934"/>
			<circle style="fill-rule:evenodd;clip-rule:evenodd;fill:#FFFFFF;" cx="99.476" cy="99.074" r="1.934"/>
		</g>
		<g>
			<circle style="fill-rule:evenodd;clip-rule:evenodd;fill:#FFFFFF;" cx="10.714" cy="91.532" r="1.934"/>
			<circle style="fill-rule:evenodd;clip-rule:evenodd;fill:#FFFFFF;" cx="22.509" cy="91.532" r="1.934"/>
			<circle style="fill-rule:evenodd;clip-rule:evenodd;fill:#FFFFFF;" cx="34.306" cy="91.532" r="1.934"/>
			<circle style="fill-rule:evenodd;clip-rule:evenodd;fill:#FFFFFF;" cx="46.102" cy="91.532" r="1.934"/>
			<circle style="fill-rule:evenodd;clip-rule:evenodd;fill:#FFFFFF;" cx="57.899" cy="91.532" r="1.934"/>
			<circle style="fill-rule:evenodd;clip-rule:evenodd;fill:#FFFFFF;" cx="69.695" cy="91.532" r="1.934"/>
			<circle style="fill-rule:evenodd;clip-rule:evenodd;fill:#FFFFFF;" cx="81.492" cy="91.532" r="1.934"/>
			<circle style="fill-rule:evenodd;clip-rule:evenodd;fill:#FFFFFF;" cx="93.288" cy="91.532" r="1.934"/>
			<path style="fill-rule:evenodd;clip-rule:evenodd;fill:#FFFFFF;" d="M103.958,93.104c-0.488-0.351-0.808-0.924-0.808-1.571
				l0.001-0.056C103.448,91.997,103.716,92.541,103.958,93.104z"/>
		</g>
		<g>
			<path style="fill-rule:evenodd;clip-rule:evenodd;fill:#FFFFFF;" d="M18.763,84.707c-0.229,0.813-0.975,1.41-1.861,1.41
				c-0.565,0-1.073-0.242-1.427-0.628C16.549,85.245,17.648,84.987,18.763,84.707z"/>
			<circle style="fill-rule:evenodd;clip-rule:evenodd;fill:#FFFFFF;" cx="28.698" cy="84.184" r="1.934"/>
			<circle style="fill-rule:evenodd;clip-rule:evenodd;fill:#FFFFFF;" cx="40.494" cy="84.184" r="1.934"/>
			<circle style="fill-rule:evenodd;clip-rule:evenodd;fill:#FFFFFF;" cx="52.291" cy="84.184" r="1.934"/>
			<circle style="fill-rule:evenodd;clip-rule:evenodd;fill:#FFFFFF;" cx="64.088" cy="84.184" r="1.934"/>
			<circle style="fill-rule:evenodd;clip-rule:evenodd;fill:#FFFFFF;" cx="75.883" cy="84.184" r="1.934"/>
			<path style="fill-rule:evenodd;clip-rule:evenodd;fill:#FFFFFF;" d="M89.613,84.218c-0.018,1.052-0.877,1.899-1.934,1.899
				c-1.067,0-1.934-0.865-1.934-1.934c0-0.372,0.105-0.72,0.288-1.016C87.233,83.546,88.43,83.895,89.613,84.218z"/>
		</g>
	</g>
	<path style="fill-rule:evenodd;clip-rule:evenodd;fill:#FFDECC;" d="M65.347,51.04v25.117c-5.639,7.411-14.865,7.155-20.504,0
		V51.04C44.843,37.479,65.347,37.479,65.347,51.04z"/>
	<path style="fill-rule:evenodd;clip-rule:evenodd;fill:#F7C5AA;" d="M65.347,51.04v16.816c-3.88,3.035-7.619,4.735-10.252,4.735
		c-2.633,0-6.373-1.7-10.252-4.735V51.04C44.843,37.479,65.347,37.479,65.347,51.04z"/>
	<path style="fill-rule:evenodd;clip-rule:evenodd;fill:#FFDECC;" d="M55.095,68.415c-6.675,0-20.775-10.495-25.135-25.524
		C25.559,27.714,33.848,5.947,55.095,5.947c21.246,0,29.536,21.768,25.135,36.944C75.87,57.921,61.77,68.415,55.095,68.415z"/>
	<path style="fill-rule:evenodd;clip-rule:evenodd;fill:#FF386A;" d="M47.054,53.283c3.402-3.293,6.055-0.823,8.041-0.823
		c1.986,0,4.639-2.47,8.04,0.823C61.308,61.968,49.479,62.235,47.054,53.283z"/>
	<path style="fill-rule:evenodd;clip-rule:evenodd;fill:#C9204A;" d="M47.054,53.283c3.401-3.292,6.055-0.823,8.041-0.823
		c1.986,0,4.639-2.469,8.04,0.823C57.934,55.846,50.555,54.649,47.054,53.283z"/>
	
		<ellipse transform="matrix(-0.3946 -0.9189 0.9189 -0.3946 0.6518 85.9914)" style="fill-rule:evenodd;clip-rule:evenodd;fill:#FFDECC;" cx="28.654" cy="42.781" rx="7.317" ry="4.231"/>
	
		<ellipse transform="matrix(0.3946 -0.9188 0.9188 0.3946 10.4087 101.3611)" style="fill-rule:evenodd;clip-rule:evenodd;fill:#FFDECC;" cx="82.127" cy="42.781" rx="7.316" ry="4.232"/>
	<path style="fill-rule:evenodd;clip-rule:evenodd;fill:#FF690F;" d="M44.125,12.705c1.637,7.952,10.057,12.161,18.008,13.331
		c7.952,1.17,14.969,1.169,10.525,6.549c-4.444,5.379-1.871,10.291,2.338,13.331c4.211,3.04,2.807,11.226-0.935,16.372
		c-3.741,5.146-4.677,9.589-0.233,14.5c4.443,4.912,2.104,5.099-1.638,11.179c-2.328,3.785-0.551,8.175,3.662,9.183
		c0.797,0.19-3.599-3.045-1.396-6.939c3.547-6.271,8.492-8.51,5.452-15.994c-3.04-7.484-1.17-7.719,1.871-11.227
		c3.041-3.508,4.21-12.396,0.468-19.646c-3.742-7.25,2.572-4.911,1.871-13.799C83.416,20.657,61.665-12.087,44.125,12.705z"/>
	<path style="fill-rule:evenodd;clip-rule:evenodd;fill:#FF690F;" d="M58.14,5.989C52.664,9.16,33.742,27.556,31.609,33.982
		s0.082,11.688,1.37,16.409C28.367,49.238,16.922-2.37,58.14,5.989z"/>
	<g>
		<polygon style="fill-rule:evenodd;clip-rule:evenodd;fill:#B34D1F;" points="43.314,71.607 37.759,76.139 47.065,90.579 
			55.095,82.96 		"/>
		<polygon style="fill-rule:evenodd;clip-rule:evenodd;fill:#B34D1F;" points="67.109,71.49 72.896,76.372 63.126,90.579 
			55.095,82.96 		"/>
	</g>
	<g>
		<path style="fill-rule:evenodd;clip-rule:evenodd;fill:#B5903F;" d="M22.241,110.19c0.063-2.012,0.246-4.434,0.732-7.387
			c-0.906,2.88-1.549,5.289-2.001,7.387H22.241z"/>
		<path style="fill-rule:evenodd;clip-rule:evenodd;fill:#B5903F;" d="M87.949,110.19c-0.063-2.012-0.246-4.434-0.731-7.387
			c0.906,2.88,1.549,5.289,2.001,7.387H87.949z"/>
	</g>
</g>
</svg>