<?xml version="1.0" encoding="iso-8859-1"?>
<!-- Uploaded to: SVG Repo, www.svgrepo.com, Generator: SVG Repo Mixer Tools -->
<svg height="800px" width="800px" version="1.1" id="Layer_1" xmlns="http://www.w3.org/2000/svg" xmlns:xlink="http://www.w3.org/1999/xlink" 
	 viewBox="0 0 512.217 512.217" xml:space="preserve">
<g transform="translate(1 1)">
	<polygon style="fill:#FCC309;" points="417.351,502.575 451.484,502.575 451.484,417.242 417.351,417.242 	"/>
	<g>
		<path style="fill:#FFDD09;" d="M434.417,348.975L434.417,348.975c9.387,0,17.067,7.68,17.067,17.067v51.2h-34.133v-51.2
			C417.351,356.655,425.031,348.975,434.417,348.975"/>
		<path style="fill:#FFDD09;" d="M392.604,383.109h24.747v-16.213c0-8.533,5.973-16.213,14.507-17.92
			c11.093-1.707,19.627,6.827,19.627,17.067v17.067h24.747c14.507,0,26.453-11.947,26.453-26.453v-93.013
			c0-9.387-7.68-17.067-17.067-17.067h-102.4c-9.387,0-17.067,7.68-17.067,17.067v93.013
			C366.151,371.162,378.098,383.109,392.604,383.109"/>
	</g>
	<path style="fill:#FD9808;" d="M485.617,246.575h-25.6c9.387,0,17.067,7.68,17.067,17.067v93.013c0,14.507-11.093,25.6-25.6,26.453
		l0,0h24.747c14.507,0,26.453-11.947,26.453-26.453v-93.013C502.684,254.255,495.004,246.575,485.617,246.575"/>
	<path style="fill:#1CD759;" d="M238.151,349.829v16.213c0,18.773-15.36,34.133-34.133,34.133s-34.133-15.36-34.133-34.133v-16.213
		c-76.8,8.533-136.533,73.387-136.533,152.747l0,0h341.333l0,0C374.684,423.215,314.951,358.362,238.151,349.829"/>
	<path style="fill:#15A143;" d="M238.151,349.829v5.12c64,18.773,110.933,77.653,110.933,147.627l0,0h25.6l0,0
		C374.684,423.215,314.951,358.362,238.151,349.829"/>
	<path style="fill:#FFFFFF;" d="M169.884,349.829v5.12c-64,18.773-110.933,77.653-110.933,147.627l0,0h-25.6l0,0
		C33.351,423.215,93.084,358.362,169.884,349.829"/>
	<path style="fill:#FFDD09;" d="M297.884,502.575H110.151v-41.813c0-14.507,11.947-26.453,26.453-26.453h134.827
		c14.507,0,26.453,11.947,26.453,26.453V502.575z"/>
	<path style="fill:#FD9808;" d="M272.284,434.309h-25.6c14.507,0,26.453,11.947,26.453,26.453v41.813h25.6v-41.813
		C298.737,446.255,286.791,434.309,272.284,434.309"/>
	<g>
		<path style="fill:#FFDD09;" d="M204.017,306.309c-11.947,0-23.893-2.56-34.133-6.827v66.56c0,18.773,15.36,34.133,34.133,34.133
			s34.133-15.36,34.133-34.133v-66.56C227.911,303.749,215.964,306.309,204.017,306.309"/>
		<path style="fill:#FFDD09;" d="M122.951,127.109c-2.56,7.68-4.267,17.067-4.267,25.6v68.267c0,46.933,38.4,85.333,85.333,85.333
			s85.333-38.4,85.333-85.333v-68.267c0-8.533-1.707-17.92-4.267-25.6H122.951z"/>
	</g>
	<path style="fill:#FD9808;" d="M285.084,127.109h-25.6c2.56,7.68,4.267,17.067,4.267,25.6v68.267
		c0,42.667-31.573,77.653-72.533,84.48c4.267,0.853,8.533,0.853,12.8,0.853c46.933,0,85.333-38.4,85.333-85.333v-68.267
		C289.351,144.175,287.644,134.789,285.084,127.109"/>
	<g>
		<path style="fill:#FCC309;" d="M297.884,161.242c-3.413,0-5.973,0.853-8.533,1.707v47.787c2.56,0.853,5.12,1.707,8.533,1.707
			c14.507,0,25.6-11.093,25.6-25.6C323.484,172.335,312.391,161.242,297.884,161.242"/>
		<path style="fill:#FCC309;" d="M110.151,212.442c3.413,0,5.973-0.853,8.533-1.707v-47.787c-2.56-0.853-5.12-1.707-8.533-1.707
			c-14.507,0-25.6,11.093-25.6,25.6S95.644,212.442,110.151,212.442"/>
		<path style="fill:#FCC309;" d="M365.297,107.482c-37.547-21.333-70.827-48.64-102.4-78.507
			c-14.507-12.8-34.987-21.333-58.88-21.333s-44.373,8.533-58.88,21.333c-31.573,29.013-64.853,57.173-102.4,78.507L7.751,127.109
			h68.267h256h68.267L365.297,107.482z"/>
	</g>
	<path style="fill:#FD9808;" d="M365.297,107.482c-37.547-21.333-70.827-48.64-102.4-78.507
		c-14.507-12.8-34.987-21.333-58.88-21.333c-5.973,0-11.947,0.853-17.067,1.707c16.213,2.56,31.573,10.24,41.813,19.627
		c31.573,29.013,64.853,57.173,102.4,78.507l34.987,19.627h34.133L365.297,107.482z"/>
	<path style="fill:#FFFFFF;" d="M42.737,107.482c37.547-21.333,70.827-48.64,102.4-78.507c14.507-12.8,34.987-21.333,58.88-21.333
		c5.973,0,11.947,0.853,17.067,1.707c-16.213,2.56-31.573,10.24-41.813,19.627c-31.573,29.013-64.853,57.173-102.4,78.507
		l-34.987,19.627H7.751L42.737,107.482z"/>
	<path d="M451.484,425.775h-34.133c-5.12,0-8.533-3.413-8.533-8.533v-51.2c0-14.507,11.093-25.6,25.6-25.6s25.6,11.093,25.6,25.6
		v51.2C460.017,422.362,456.604,425.775,451.484,425.775z M425.884,408.709h17.067v-42.667c0-5.12-3.413-8.533-8.533-8.533
		s-8.533,3.413-8.533,8.533V408.709z"/>
	<path d="M476.231,391.642h-24.747c-5.12,0-8.533-3.413-8.533-8.533v-17.067c0-2.56-0.853-5.12-3.413-6.827
		c-1.707-1.707-4.267-1.707-6.827-1.707c-4.267,0.853-6.827,5.12-6.827,9.387v16.213c0,5.12-3.413,8.533-8.533,8.533h-24.747
		c-19.627,0-34.987-16.213-34.987-34.987v-93.013c0-14.507,11.093-25.6,25.6-25.6h102.4c14.507,0,25.6,11.093,25.6,25.6v93.013
		C511.217,375.429,495.004,391.642,476.231,391.642z M460.017,374.575h16.213c10.24,0,17.92-8.533,17.92-17.92v-93.013
		c0-5.12-3.413-8.533-8.533-8.533h-102.4c-5.12,0-8.533,3.413-8.533,8.533v93.013c0,10.24,8.533,17.92,17.92,17.92h16.213v-7.68
		c0-12.8,9.387-23.893,21.333-26.453c7.68-0.853,15.36,0.853,20.48,5.973c5.973,5.12,9.387,11.947,9.387,19.627V374.575z"/>
	<path d="M451.484,425.775h-34.133c-5.12,0-8.533-3.413-8.533-8.533c0-5.12,3.413-8.533,8.533-8.533h34.133
		c5.12,0,8.533,3.413,8.533,8.533C460.017,422.362,456.604,425.775,451.484,425.775z"/>
	<path d="M374.684,511.109H33.351c-5.12,0-8.533-3.413-8.533-8.533c0-82.773,62.293-151.893,144.213-161.28
		c2.56,0,5.12,0.853,6.827,1.707c1.707,0.853,2.56,4.267,2.56,5.973v17.067c0,14.507,11.093,25.6,25.6,25.6
		c14.507,0,25.6-11.093,25.6-25.6v-16.213c0-2.56,0.853-5.12,2.56-5.973c1.707-1.707,4.267-2.56,6.827-1.707
		c81.92,8.533,144.213,77.653,144.213,160.427C383.217,507.695,379.804,511.109,374.684,511.109z M41.884,494.042h324.267
		c-4.267-67.413-52.907-122.88-119.467-133.973v5.973c0,23.893-18.773,42.667-42.667,42.667s-42.667-18.773-42.667-42.667v-5.973
		C95.644,371.162,46.151,426.629,41.884,494.042z"/>
	<path d="M204.017,408.709c-23.893,0-42.667-18.773-42.667-42.667v-66.56c0-2.56,1.707-5.973,4.267-6.827
		c2.56-0.853,5.12-1.707,7.68-0.853c19.627,8.533,41.813,8.533,61.44,0c2.56-0.853,5.973-0.853,7.68,0.853
		c2.56,1.707,4.267,4.267,4.267,6.827v66.56C246.684,389.935,227.911,408.709,204.017,408.709z M178.417,311.429v54.613
		c0,14.507,11.093,25.6,25.6,25.6c14.507,0,25.6-11.093,25.6-25.6v-54.613C213.404,315.695,194.631,315.695,178.417,311.429z"/>
	<path d="M400.284,135.642H7.751c-4.267,0-7.68-2.56-8.533-5.973c-0.853-3.413,0.853-7.68,4.267-9.387l34.987-19.627
		c31.573-17.92,63.147-41.813,100.693-76.8c16.213-16.213,40.107-24.747,64.853-24.747s48.64,8.533,64.853,23.893
		c37.547,34.987,69.12,58.88,100.693,76.8l34.987,19.627c3.413,1.707,5.12,5.973,4.267,9.387
		C407.964,133.082,404.551,135.642,400.284,135.642z M40.177,118.575h327.68l-6.827-4.267l0,0
		c-33.28-18.773-64.853-43.52-104.107-79.36c-12.8-11.947-32.427-18.773-52.907-18.773s-40.107,6.827-52.907,18.773
		c-39.253,35.84-70.827,60.587-104.107,79.36L40.177,118.575z"/>
	<path d="M204.017,314.842c-52.053,0-93.867-41.813-93.867-93.867v-68.267c0-9.387,1.707-18.773,4.267-28.16
		c0.853-3.413,4.267-5.973,8.533-5.973h162.987c3.413,0,6.827,2.56,8.533,5.973c2.56,9.387,4.267,18.773,4.267,28.16v68.267
		C297.884,273.029,256.071,314.842,204.017,314.842z M128.924,135.642c-0.853,5.973-1.707,11.093-1.707,17.067v68.267
		c0,42.667,34.133,76.8,76.8,76.8s76.8-34.133,76.8-76.8v-68.267c0-5.973-0.853-11.093-1.707-17.067H128.924z"/>
	<path d="M297.884,511.109H110.151c-5.12,0-8.533-3.413-8.533-8.533v-41.813c0-18.773,15.36-34.987,34.987-34.987h134.827
		c18.773,0,34.987,15.36,34.987,34.987v41.813C306.417,507.695,303.004,511.109,297.884,511.109z M118.684,494.042h170.667v-33.28
		c0-9.387-7.68-17.92-17.92-17.92H136.604c-9.387,0-17.92,7.68-17.92,17.92V494.042z"/>
	<path d="M272.284,442.842c-5.12,0-8.533-3.413-8.533-8.533v-75.093c0-5.12,3.413-8.533,8.533-8.533c5.12,0,8.533,3.413,8.533,8.533
		v75.093C280.817,439.429,277.404,442.842,272.284,442.842z"/>
	<path d="M135.751,442.842c-5.12,0-8.533-3.413-8.533-8.533v-75.093c0-5.12,3.413-8.533,8.533-8.533c5.12,0,8.533,3.413,8.533,8.533
		v75.093C144.284,439.429,140.871,442.842,135.751,442.842z"/>
	<path d="M297.884,220.975c-3.413,0-7.68-0.853-11.093-1.707c-3.413-0.853-5.973-4.267-5.973-7.68v-47.787
		c0-3.413,2.56-6.827,5.973-7.68c23.893-8.533,45.227,9.387,45.227,32.427C332.017,205.615,316.657,220.975,297.884,220.975z
		 M297.884,169.775v34.133c9.387,0,17.067-7.68,17.067-17.067S307.271,169.775,297.884,169.775z"/>
	<path d="M110.151,220.975c-18.773,0-34.133-15.36-34.133-34.133c0-22.187,22.187-40.107,45.227-32.427
		c3.413,0.853,5.973,4.267,5.973,7.68v47.787c0,3.413-2.56,6.827-5.973,7.68C117.831,220.122,113.564,220.975,110.151,220.975z
		 M110.151,169.775c-9.387,0-17.067,7.68-17.067,17.067s7.68,17.067,17.067,17.067V169.775z"/>
	<path d="M152.817,476.975c-5.12,0-8.533-3.413-8.533-8.533c0-5.12,3.413-8.533,8.533-8.533h102.4l0,0
		c5.12,0,8.533,3.413,8.533,8.533c0,5.12-3.413,8.533-8.533,8.533H152.817L152.817,476.975z"/>
	<path d="M280.817,101.509c-5.12,0-8.533-3.413-8.533-8.533c0-42.667,34.133-76.8,76.8-76.8c5.12,0,8.533,3.413,8.533,8.533
		s-3.413,8.533-8.533,8.533c-33.28,0-59.733,26.453-59.733,59.733C289.351,98.095,285.937,101.509,280.817,101.509z"/>
	<path d="M451.484,511.109h-34.133c-5.12,0-8.533-3.413-8.533-8.533v-85.333c0-5.12,3.413-8.533,8.533-8.533h34.133
		c5.12,0,8.533,3.413,8.533,8.533v85.333C460.017,507.695,456.604,511.109,451.484,511.109z M425.884,494.042h17.067v-68.267
		h-17.067V494.042z"/>
</g>
</svg>