<?xml version="1.0" encoding="utf-8"?>
<!-- Uploaded to: SVG Repo, www.svgrepo.com, Generator: SVG Repo Mixer Tools -->
<svg fill="#000000" width="800px" height="800px" viewBox="0 0 32 32" version="1.1" xmlns="http://www.w3.org/2000/svg">
<title>zomato</title>
<path style="fill:rgb(255, 0, 50)" d="M20.386 16.8c0.011-0 0.023-0 0.035-0 0.231 0 0.456 0.026 0.672 0.077l-0.020-0.004-0.016 0.147c-0.068 0.581-0.495 1.046-1.051 1.17l-0.009 0.002c-0.038 0.008-0.082 0.013-0.127 0.013-0.306 0-0.562-0.211-0.632-0.495l-0.001-0.004c-0.004-0.027-0.006-0.059-0.006-0.091 0-0.16 0.056-0.307 0.15-0.423l-0.001 0.001c0.184-0.214 0.448-0.354 0.745-0.375l0.003-0c0.076-0.010 0.166-0.017 0.256-0.017h0.001zM28.754 15.478c0.317 0 0.509 0.285 0.509 0.876 0 0.858-0.345 1.563-0.781 1.563-0.327 0-0.519-0.295-0.519-0.877 0-0.867 0.355-1.562 0.791-1.562zM7.974 15.478c0.319 0 0.51 0.285 0.51 0.876 0 0.858-0.345 1.563-0.782 1.563-0.326 0-0.517-0.295-0.517-0.877 0-0.867 0.354-1.562 0.79-1.562zM1.74 14.319c-0.062 0.487-0.127 0.972-0.219 1.412 0.41-0.010 0.774-0.020 1.763-0.020l-2.262 2.449-0.019 0.878c0.555-0.037 1.246-0.049 2.037-0.049 0.707 0 1.417 0.010 1.871 0.049 0.081-0.572 0.162-0.953 0.262-1.421-0.344 0.019-0.943 0.029-1.889 0.029l2.262-2.461 0.029-0.867c-0.546 0.029-1.037 0.037-1.899 0.037-0.936 0-1.218-0.009-1.936-0.037zM8.146 14.206c-1.454 0.078-2.603 1.276-2.603 2.743 0 0.052 0.001 0.103 0.004 0.154l-0-0.007c-0.006 0.055-0.009 0.118-0.009 0.182 0 1.054 0.854 1.908 1.908 1.908 0.039 0 0.077-0.001 0.115-0.003l-0.005 0c1.454-0.075 2.604-1.273 2.604-2.738 0-0.056-0.002-0.112-0.005-0.167l0 0.008c0.006-0.056 0.009-0.12 0.009-0.186 0-1.047-0.849-1.896-1.896-1.896-0.043 0-0.085 0.001-0.127 0.004l0.006-0zM14.244 14.196c-0.875 0.145-1.584 0.736-1.894 1.528l-0.006 0.017c0.059-0.288 0.093-0.618 0.093-0.957 0-0.19-0.011-0.378-0.032-0.563l0.002 0.023c-0.475 0.084-1.030 0.139-1.595 0.152l-0.013 0c0.003 0.081 0.004 0.177 0.004 0.273 0 0.452-0.035 0.895-0.102 1.328l0.006-0.048-0.209 1.431c-0.082 0.562-0.172 1.211-0.264 1.621h1.691c0.009-0.249 0.072-0.639 0.117-0.982l0.145-0.982c0.119-0.639 0.627-1.392 1.018-1.392 0.227 0 0.219 0.22 0.155 0.63l-0.164 1.106c-0.082 0.562-0.172 1.211-0.264 1.621h1.708c0.010-0.249 0.064-0.64 0.11-0.982l0.145-0.982c0.117-0.64 0.627-1.392 1.017-1.392 0.227 0 0.219 0.21 0.182 0.495l-0.409 2.862h1.56l0.547-3.26c0.119-0.811 0.055-1.545-0.845-1.545-0.85 0.137-1.542 0.701-1.856 1.461l-0.006 0.016c0.109-0.762 0.045-1.477-0.846-1.477zM28.961 14.144c-1.473 0.079-2.637 1.292-2.637 2.777 0 0.053 0.001 0.105 0.004 0.157l-0-0.007c-0.006 0.056-0.009 0.121-0.009 0.186 0 1.067 0.865 1.933 1.933 1.933 0.039 0 0.078-0.001 0.116-0.003l-0.005 0c1.473-0.077 2.638-1.29 2.638-2.775 0-0.057-0.002-0.113-0.005-0.169l0 0.008c0.006-0.056 0.009-0.122 0.009-0.188 0-1.061-0.86-1.921-1.921-1.921-0.043 0-0.086 0.001-0.128 0.004l0.006-0zM20.794 14.066c-0.162 0.003-0.318 0.015-0.472 0.035l0.021-0.002c-0.628 0.072-1.197 0.264-1.706 0.551l0.022-0.012 0.325 0.986c0.353-0.2 0.765-0.344 1.204-0.405l0.018-0.002c0.672-0.082 0.946 0.125 0.987 0.469 0.005 0.046 0.008 0.1 0.008 0.155 0 0.073-0.005 0.144-0.015 0.214l0.001-0.008-0.017 0.070c-0.248-0.051-0.533-0.080-0.826-0.080-0.192 0-0.382 0.013-0.567 0.037l0.022-0.002c-0.602 0.046-1.131 0.326-1.502 0.747l-0.002 0.002c-0.196 0.268-0.313 0.605-0.313 0.969 0 0.114 0.012 0.226 0.034 0.334l-0.002-0.011c0.101 0.568 0.59 0.993 1.179 0.993 0.113 0 0.223-0.016 0.327-0.045l-0.008 0.002c0.557-0.061 1.035-0.355 1.341-0.782l0.004-0.006c-0.006 0.14-0.019 0.271-0.040 0.399l0.003-0.019c-0.022 0.138-0.054 0.26-0.095 0.378l0.005-0.015 1.555 0.001q-0.012-0.228-0.001-0.456 0.068-0.86 0.309-2.563c0.014-0.108 0.022-0.232 0.022-0.359 0-0.134-0.009-0.265-0.026-0.394l0.002 0.015c-0.1-0.805-0.785-1.211-1.794-1.197zM25.516 12.813l-1.572 0.591-0.209 0.887-0.557 0.026-0.144 1.222h0.51l-0.264 1.887c-0.164 1.173 0.045 1.726 1.081 1.726 0.521-0.009 1.008-0.145 1.434-0.379l-0.016 0.008 0.181-1.125c-0.224 0.122-0.485 0.207-0.763 0.237l-0.009 0.001c-0.309 0-0.345-0.162-0.281-0.61l0.236-1.745h1.053c0.038-0.257 0.164-1.096 0.2-1.25h-1.081z"></path>
</svg>